<?xml version="1.0" standalone="no"?>
<!DOCTYPE svg PUBLIC "-//W3C//DTD SVG 1.1//EN" "http://www.w3.org/Graphics/SVG/1.1/DTD/svg11.dtd" >
<svg xmlns="http://www.w3.org/2000/svg" xmlns:xlink="http://www.w3.org/1999/xlink" version="1.1">
<metadata></metadata>
<defs>
<font id="worstveldslingregular" horiz-adv-x="755" >
<font-face units-per-em="2048" ascent="1638" descent="-410" />
<missing-glyph horiz-adv-x="509" />
<glyph horiz-adv-x="0" />
<glyph unicode="&#xd;" horiz-adv-x="1449" d="M72 -119q139 344 354 643q-8 14 -145 197q-127 168 -125 174q4 18 69 45q88 -141 242 -356q338 469 557 456q20 -2 2 -77q-20 10 -45 10q-106 0 -281 -178q-119 -121 -206 -250q66 -96 299 -350q20 -31 221 -224q119 -109 229 -139q20 -6 47 -6q74 0 94 51q8 -6 9 -22 q0 -53 -50 -66q-33 -8 -65 -8q-123 0 -270 123q-119 111 -236 223q-113 106 -319 360q-195 -285 -314 -581q-18 -43 -41 -43q-12 0 -26 18z" />
<glyph unicode=" "  horiz-adv-x="509" />
<glyph unicode="&#x09;" horiz-adv-x="509" />
<glyph unicode="&#xa0;" horiz-adv-x="509" />
<glyph unicode="!" horiz-adv-x="249" d="M72 -6q0 23 9 62.5t11 56.5q23 27 66 0q0 -6 2 -43q0 -25 -2 -39q-2 -23 -13 -39q-61 -8 -73 2zM90 338q0 4 14 143q12 131 11 238v149q-4 131 -17 148q12 0 29.5 9t26.5 9q10 0 22 -12h-2q16 -84 16 -391q0 -259 -14 -316q-12 -6 -41 -6q-33 0 -39 6.5t-6 22.5z" />
<glyph unicode="&#x22;" horiz-adv-x="425" d="M72 1137q6 14 30 41q30 -1 50 -21q10 -37 10 -88q0 -41 -17 -117q-20 -92 -47 -92q-6 0 -24 21q6 10 14 26q16 47 16 84q0 10 -32 146zM276 1137q6 14 31 41q29 -1 49 -21q10 -37 11 -88q0 -41 -17 -117q-20 -92 -47 -92q-6 0 -24 21q6 10 14 26q16 47 16 84 q0 10 -33 146z" />
<glyph unicode="#" d="M72 274q4 8 12 39q20 0 70 2h75l2 205h-159q4 8 12 39q20 0 70 2h77v230q27 6 60 14l-10 -242q76 0 116 2l84 4v222q35 6 60 14l-11 -234l168 9q-2 -8 -12 -58l-158 -2l-2 -78l-2 -116l174 8q-2 -8 -12 -58l-164 -2q0 -92 -4 -211q-23 -10 -39 -14v225h-207 q0 -92 -4 -211q-23 -10 -39 -14v225h-157zM274 317q82 0 123 2l84 5v196h-202l-3 -78q-2 -78 -2 -125z" />
<glyph unicode="$" horiz-adv-x="966" d="M72 315q0 29 22 45q43 33 121 0q-8 -6 -27 -22q-20 4 -34 4q-37 0 -37 -25q0 -39 69.5 -102t202.5 -100q-4 45 -4 59q-8 145 -23 449l-6 2q-102 57 -131 82q-61 51 -75 120q-27 129 215 183q0 25 10 75q14 4 26 11q20 6 25 -6q-2 -16 -6 -70q61 10 129 6q0 18 2 25 q0 -6 8 34q14 4 27 11q20 6 24 -6q-2 -16 -6 -66q139 -14 201 -72l-37 -24q-61 47 -168 53q-2 -16 -2 -43q0 -47 2 -143v-146q0 -37 2 -57q301 -153 301 -268q6 -31 6 -58q0 -82 -76.5 -150.5t-193.5 -84.5l4 -60h-57q-2 14 -6 56q-53 0 -125 14l4 -70h-58q-2 27 -8 86 q-129 43 -225 121t-96 137zM221 823q6 -38 141 -112v8v231q-154 -49 -141 -127zM414 938q0 -41 2 -127v-127q20 -10 64 -30.5t67 -32.5v98v262q-63 0 -133 -16v-27zM418 592q2 -106 18 -311l15 -181q65 -12 124 -10q-2 37 -6 84q-6 119 -18 348q-59 27 -88 43zM606 496 q6 -96 15 -215l14 -187q211 29 188 211q-10 90 -217 191z" />
<glyph unicode="%" horiz-adv-x="1064" d="M72 662q0 92 80 153q74 55 170 55q74 0 120 -36q54 -43 54 -119q0 -109 -76 -176q-66 -57 -158 -58q-72 0 -121 35q-55 41 -67 111q-2 16 -2 35zM137 666q0 -27 8 -56q23 -90 115 -90q68 0 123 53.5t55 137.5q0 57 -36.5 86.5t-90.5 29.5q-68 0 -116 -41 q-57 -47 -58 -120zM219 -20q18 23 55 88q90 156 136 235l100 180q37 66 108 197l27 49q78 145 100 199q2 4 7 12q12 8 49 8q16 0 28 -4q-6 -14 -28 -51q-10 -18 -27 -47l-463 -807q-4 -8 -18 -25q-14 -23 -43 -30q-20 -6 -29 -7zM584 252q0 92 80 154q74 55 170 55 q74 0 120 -37q54 -43 54 -119q0 -109 -76 -176q-66 -57 -158 -57q-72 0 -121 34q-55 41 -67 111q-2 16 -2 35zM649 256q0 -27 8 -55q23 -90 115 -90q68 0 123 53t55 137q0 57 -36.5 87t-90.5 30q-68 0 -116 -41q-57 -47 -58 -121z" />
<glyph unicode="&#x26;" horiz-adv-x="1026" d="M72 244q0 174 164 264q131 74 262 59q-57 20 -115 43q-68 27 -102 62q-70 72 -66 164q4 102 119 145q84 31 201 25q96 -6 126.5 -29t6.5 -45q-25 -23 -68 -23q-57 0 -88 45q-90 10 -159.5 -23.5t-67.5 -94.5q-27 -172 352 -267q2 37 8 86q4 41 4 50q47 14 62 -9 q-14 -178 -11 -254q6 -158 48 -282q14 -43 38 -144q141 68 146 168q0 16 -13.5 46t-13.5 44q0 18 21 37q68 -14 67 -88q0 -74 -50 -144.5t-144 -115.5q20 -113 22 -227q2 -131 -90 -219q-80 -78 -194 -78q-176 0 -299 147l-31 37q-66 78 -66 162q0 31 21.5 47t52.5 16 q20 0 33 -12q2 -8 -2 -24q-14 4 -25 4q-27 0 -26 -23q0 -18 18 -65q2 -8 27 -47q49 -84 140 -136.5t179 -52.5q186 0 191 205q2 170 -13 242q-104 -35 -215 -35q-59 0 -110 10q-340 76 -340 330zM143 223q0 -100 105 -180q115 -88 274 -88q103 0 205 37q-18 63 -51 196 q-27 117 -35 205q-8 78 -4 144q-12 2 -188 -17q-305 -33 -306 -297z" />
<glyph unicode="'" horiz-adv-x="221" d="M72 1137q6 14 30 41q30 -1 50 -21q10 -37 10 -88q0 -41 -17 -117q-20 -92 -47 -92q-6 0 -24 21q6 10 14 26q16 47 16 84q0 10 -32 146z" />
<glyph unicode="(" horiz-adv-x="649" d="M72 414q0 336 106 557q117 244 316 243q38 0 79 -10q18 -25 19 -39q0 -27 -64 -26h-36q-27 2 -35 2q-168 0 -252 -244q-63 -186 -64 -446q0 -231 78 -380t193 -155q47 -2 47 -45q0 -31 -47 -25q-18 -2 -35 -2q-133 0 -215 138q-90 154 -90 432z" />
<glyph unicode=")" horiz-adv-x="649" d="M72 -106q0 27 59 26q12 0 39 -2t37 -2q168 0 252 244q63 188 63 446q0 233 -80 385q-76 143 -190 150q-47 2 -47 45q0 33 47 24q18 2 37 2q131 0 213 -139q90 -151 90 -430q0 -334 -107 -557q-117 -242 -315 -242q-39 0 -80 11q-18 25 -18 39z" />
<glyph unicode="*" horiz-adv-x="665" d="M72 965q6 10 57 24q74 -66 190 -139q-2 55 -5 110.5t-17 114.5q10 18 41 45q12 0 49 -37q-14 -61 -27 -233q92 57 95 59q45 29 90 74q20 0 59 -14q8 -14 -6 -60q-90 -31 -217 -96q49 -27 98 -51.5t109 -40.5q14 -18 20 -59q-6 -10 -57 -25q-68 59 -191 141 q2 -55 5.5 -111.5t17.5 -115.5q-10 -18 -41 -45q-12 0 -49 37q18 90 26 233q-47 -29 -93 -58.5t-91 -72.5q-20 -2 -59 12q-8 12 6 62q66 20 217 94q-49 27 -99 52.5t-108 41.5q-12 16 -20 58z" />
<glyph unicode="+" d="M72 397q2 8 12 58l283 2v264h59l-10 -264h282q-4 -8 -12 -39l-272 -6q0 -8 -13 -322q-16 4 -41 8q2 104 7 314q-197 -8 -295 -15z" />
<glyph unicode="," horiz-adv-x="284" d="M72 -176q88 68 88 153q0 57 -37 107q12 8 39 27q16 -5 47 -15q18 -33 18 -76q0 -74 -50 -139t-103 -57h-2z" />
<glyph unicode="-" d="M72 397q2 8 12 58l614 2q-4 -8 -12 -39q-113 -2 -313 -6q-150 -4 -301 -15z" />
<glyph unicode="." horiz-adv-x="229" d="M72 80q53 26 100 6q12 -55 -4 -106q-47 -25 -86 -3q-31 63 -10 103z" />
<glyph unicode="/" horiz-adv-x="739" d="M72 -20q18 23 55 88q90 156 135 235l100 180q27 47 109 197q94 174 127 248l6 12q12 8 49 8q17 0 29 -4q-10 -18 -31 -55q-10 -18 -24 -43l-463 -807q-4 -8 -19 -25q-14 -23 -43 -30q-20 -6 -28 -7z" />
<glyph unicode="0" horiz-adv-x="872" d="M72 403q0 242 98 402q109 176 295 176q98 0 182 -45q92 -49 130 -133t38 -215q0 -88 -39 -203q-82 -242 -258 -344q-168 -98 -301 -6q-145 98 -145 368zM137 430q0 -170 75 -277.5t181 -107.5q139 0 251 172.5t112 362.5q0 123 -39 204q-51 104 -146 131q-45 12 -141 13 q-156 0 -233 -176q-59 -133 -60 -322z" />
<glyph unicode="1" horiz-adv-x="407" d="M72 748q0 12 6 43q0 -2 43 18q53 23 94 59q61 55 96 136q14 2 33 -9q0 -12 -6 -65q-6 -45 -6 -66v-286q0 -287 2 -326l16 -315h-35q-27 2 -34 2q-6 31 -11 309q0 47 -6 178q-4 59 2 180q4 98 -8 134t-47 36z" />
<glyph unicode="2" horiz-adv-x="913" d="M72 711q0 68 44 137.5t148 109.5q92 35 199 35q61 0 110 -12q268 -68 269 -295q0 -162 -111 -229q-70 -41 -246 -64q-150 -33 -215 -100q-72 -74 -129 -270q166 70 387 69q222 0 328 -76q-12 -23 -12 -22q-6 -6 -23 -12l-16 -25q-16 0 -98 31q-135 51 -244 51 q-49 0 -98 -10q-4 0 -150 -37q-135 -33 -139 -31q0 16 2 23q33 274 205 383q59 37 206 63q156 29 223.5 91.5t67.5 189.5q0 90 -88 166q-96 82 -229 81q-102 0 -201 -47q-129 -61 -139 -163q-2 -14 9 -42t11 -40q0 -20 -16 -37q-55 14 -55 82z" />
<glyph unicode="3" horiz-adv-x="1050" d="M72 223q0 74 67 88q20 -16 21 -37q0 -14 -14.5 -42.5t-12.5 -47.5q6 -111 168 -178q119 -49 242 -49q160 0 274 86q104 80 105 180q0 264 -306 297q-180 20 -198 12l-4 33q391 96 366 271q2 61 -67.5 94t-159.5 24q-225 -23 -248 -143l14 -63q-10 -6 -22 -7q-53 0 -61 64 q14 55 47 94q82 96 247 107q115 6 201 -25q115 -43 119 -145q4 -92 -66 -164q-35 -35 -102 -62q-57 -23 -115 -43q131 14 262 -59q164 -90 164 -264q0 -254 -340 -330q-51 -12 -110 -12q-125 0 -238 45q-123 47 -182 131q-51 72 -51 145z" />
<glyph unicode="4" horiz-adv-x="1042" d="M72 104q16 25 28 56q168 401 168 598q0 123 -49 205q16 39 105 38q14 -61 14 -139q0 -164 -70 -405q-41 -133 -82 -264q168 47 176 49q92 25 179 30q14 55 34 260q0 35 5 113q4 8 40.5 37t45.5 31q0 -166 -43 -432q197 18 295 -5q67 -16 67 -61q0 -25 -51 -22 q-12 0 -55 26q-49 29 -70 37q-119 0 -193 -18q-20 -152 -20 -250q0 -90 14 -174q8 -20 21 -64q-20 -41 -82 -45q-35 63 -35 217q0 129 25 311q-66 -6 -185 -40q-111 -31 -233 -74q-16 -6 -49 -15z" />
<glyph unicode="5" horiz-adv-x="1050" d="M72 162q0 74 67 88q20 -16 21 -37q0 -14 -14.5 -43t-12.5 -47q6 -111 168 -178q119 -49 242 -49q160 0 274 86q104 80 105 180q0 141 -83 235.5t-223 102.5q-68 4 -204 -21q-113 -23 -146 -35q-20 -6 -73 -18q0 -16 40.5 97.5t40.5 244.5q0 78 -14 162q0 27 -53 106 q4 2 147 -30q154 -37 158 -37q90 -16 160 -17q92 0 174 29q27 8 53 27q18 12 33 12l18 -25q12 -6 37 -34q-92 -61 -266 -62q-119 0 -381 45q0 -45 4 -114.5t4 -100.5q0 -113 -49 -219q61 18 156 31q88 10 112 6q158 14 285 -78q141 -105 141 -287q0 -254 -340 -329 q-51 -12 -110 -13q-125 0 -238 45q-123 47 -182 131q-51 72 -51 146z" />
<glyph unicode="6" horiz-adv-x="960" d="M72 344q-2 51 8 213q12 104 94 246q109 188 279 313q221 157 516 182l-27 -28q-367 -59 -590 -299q-168 -180 -209 -393q-23 -115 -22 -216q0 -213 155 -292q100 -51 209 -52q143 0 244 88q92 82 92 183q0 141 -98 227q-88 78 -211 78q-92 0 -164 -49t-92 -139l-23 8 q6 104 101 168q86 59 207 59q141 0 237 -80q109 -90 109 -252q0 -160 -127 -256q-117 -86 -281 -86q-170 0 -282 92q-127 104 -125 285z" />
<glyph unicode="7" horiz-adv-x="933" d="M72 899q8 6 47 35l26 22q14 0 25.5 -10t34.5 -20q96 -41 215 -41q61 0 129 10q4 0 170 33q154 28 158 26q-55 -33 -89 -104q-176 -385 -272 -692q-41 -133 -41 -246q0 -23 2 -39q6 -33 25 -63q31 -49 76 -48q-6 -20 -43 -20q-31 0 -54 20q-76 68 -75 205q0 180 135 502 q86 199 172 397q-254 -35 -367 -35q-197 0 -274 68z" />
<glyph unicode="8" horiz-adv-x="952" d="M72 231q0 119 82 213q86 102 227 131q-106 47 -137 74q-55 49 -62 146q-6 98 103 159q90 51 196 52q106 0 195 -52q106 -61 104 -159q-2 -94 -61 -146q-35 -31 -141 -74q145 -27 231 -128t86 -220q0 -131 -98 -215q-113 -96 -314 -96t-311 96q-100 88 -100 219zM133 223 q0 -94 98 -172q106 -84 252 -84q143 0 250 84q98 78 98 172q0 143 -104 221q-92 68 -238 68q-154 0 -247 -63q-109 -76 -109 -226zM250 784q0 -143 231 -178q231 51 232 185q0 63 -64.5 111t-169.5 52q-98 4 -163.5 -48t-65.5 -122z" />
<glyph unicode="9" horiz-adv-x="931" d="M20 -463l27 29q322 35 547 354q164 233 209 477q23 119 22 215q0 213 -155 293q-100 51 -209 51q-143 0 -244 -88q-92 -82 -92 -182q0 -141 98 -229q88 -76 211 -76q92 0 164 48t92 140l23 -8q-6 -104 -101 -168q-86 -59 -206 -59q-139 0 -236 80q-109 90 -109 252 q0 160 127 256q117 86 281 86q168 0 281 -93q126 -104 124 -284q2 -51 -8 -215q-12 -111 -94 -283q-109 -229 -270 -379q-211 -195 -482 -217z" />
<glyph unicode=":" horiz-adv-x="266" d="M72 10q0 57 34 82q51 0 76 -29l-1 -3t-3 -5q-6 -43 -49 -86q-29 0 -51 8q-6 14 -6 33zM100 387q2 45 35 70q45 0 74 -29q0 -2 -1 -5t-3 -5q-6 -45 -47 -86q-33 0 -52 8q-6 25 -6 47z" />
<glyph unicode=";" horiz-adv-x="309" d="M72 -141l18 18q2 4 5 8t9 11q20 27 31 51q2 6 4 18q4 20 4 29q0 18 -10 43q-2 8 -13 23.5t-18 25.5q4 4 17 10q20 10 22 10q20 0 47 -10q14 -20 21 -53v-35q-14 -84 -70 -121q-25 -33 -51 -32q-8 0 -16 4zM143 387q2 45 35 70q45 0 74 -29v-4q-2 -4 -2 -6q-8 -45 -49 -86 q-33 0 -51 8q-6 25 -7 47z" />
<glyph unicode="&#x3c;" horiz-adv-x="864" d="M72 440q16 6 47 15q14 6 45 10q172 41 393 172q37 23 117 59q23 0 51 -14q-135 -86 -211 -127q-121 -66 -266 -115q418 -135 559 -250q-16 -12 -32.5 -14t-59.5 -8q-14 6 -72.5 48t-191.5 87q-74 20 -220 74l-26 12q-43 14 -133 51z" />
<glyph unicode="=" d="M72 274q2 8 12 58l614 2q-4 -8 -12 -39q-113 -2 -313 -6q-150 -4 -301 -15zM72 520q2 8 12 58l614 2q-4 -8 -12 -39q-113 -2 -313 -6q-150 -4 -301 -15z" />
<glyph unicode="&#x3e;" horiz-adv-x="864" d="M72 674q16 12 34.5 16t57.5 6q8 -4 72 -47q70 -49 200 -92q104 -35 211 -70l27 -10q43 -14 133 -51q-14 -6 -47 -16q-14 -4 -45 -11q-176 -41 -393 -170q-35 -20 -117 -61q-20 2 -51 16q68 43 211 125q131 72 268 117q-424 135 -561 248z" />
<glyph unicode="?" horiz-adv-x="866" d="M72 793q0 61 41 120q47 68 145 107q90 37 188 37q49 0 91 -10q272 -62 272 -269q0 -229 -322 -274q-137 -18 -137 -109q0 -43 34 -77.5t77 -34.5q31 0 57 18l23 -14q-45 -35 -95 -35q-59 0 -103 47t-44 104q0 106 135 142q16 6 72 16q238 27 237 234q0 76 -81 139 q-90 70 -218 70q-96 0 -186 -39q-125 -53 -129 -140q0 -6 16 -51q14 -31 -14 -57q-59 14 -59 76zM383 113q62 8 72 -2q-2 -39 -2 -119q-18 -27 -66 0q-14 98 -4 121z" />
<glyph unicode="@" horiz-adv-x="1333" d="M72 365q16 233 229 401q201 158 440 168q193 8 332 -55q174 -78 203 -248q10 -55 0 -129q-16 -123 -107 -240q-98 -127 -211 -145q-35 -6 -81 18q-55 29 -64.5 79t-9.5 216q-66 -84 -119 -129q-123 -104 -223 -115q-66 -6 -66 60q0 113 135 248q152 154 336 149 q12 -2 8 -10q-6 -43 -8 -158q-2 -135 13 -242q10 -80 65 -79q121 0 207 149q78 135 70 262q-10 156 -146 246q-123 84 -305 84q-236 0 -414 -133q-203 -147 -225 -404q-16 -190 113 -331q143 -156 403 -156q291 0 502 168q-20 -37 -109 -94q-174 -113 -405 -113 q-195 0 -356 100q-182 113 -205 293q-8 61 -2 140zM446 258q0 -33 21 -35q33 2 119 52.5t121 89.5q88 102 108 233q-158 -16 -272 -145q-96 -109 -97 -195z" />
<glyph unicode="A" horiz-adv-x="1105" d="M37 -37l16 23q0 8 35 43q2 2 191 319q27 45 61 121l-55 -8q0 20 4 57l76 8q80 184 129 348l43 144q2 10 -19 53q27 27 80 27q8 -8 10 -27q14 -100 137 -506l101 13q14 -10 47 -27l-139 -19v-2q96 -324 258 -477q14 0 39 13l39 -50q-84 -39 -119 -39q-156 109 -291 543 q-96 -12 -289 -41q-16 -35 -45 -102q-27 -74 -108.5 -219.5t-116.5 -184.5q-18 -20 -58 -20q-18 0 -26 10zM412 530q94 11 256 27q-61 205 -103 365q-98 -262 -153 -392z" />
<glyph unicode="B" horiz-adv-x="935" d="M72 922q6 16 94 59q63 33 172 59q129 31 233 31q252 0 252 -178v-8q-2 -88 -98 -191q-82 -86 -176 -133q35 4 61 4q90 0 179.5 -67.5t89.5 -157.5q0 -88 -84 -178q-76 -78 -179 -121q-123 -51 -357 -51q-46 0 -97 2q-8 147 -8 330q0 257 16 587q-14 -6 -82 -49zM225 449 v-47q0 -128 8 -351q78 -18 129 -18q158 0 283 80q152 96 152 215q0 49 -29 94q-29 44 -84 74q-52 28 -102 28h-7q-92 -4 -350 -75zM227 500q143 23 236 65q274 132 282 312v8q0 89 -88 115q-57 17 -112 16q-33 0 -66 -6q-53 -8 -107.5 -19.5t-131.5 -52.5q-12 -186 -13 -438 z" />
<glyph unicode="C" horiz-adv-x="1062" d="M72 344q0 242 204 447q176 180 431 262q85 28 158 28h5q37 0 62 -8q72 -25 72 -106q0 -88 -70 -123q-8 -4 -55 -15q-33 0 -33 23q0 12 8 29q0 8 23.5 28.5t23.5 28.5q35 39 35 61q-15 28 -84 28q-13 0 -27 -1q-236 -14 -450 -209q-223 -205 -223 -436q0 -39 8 -78 q25 -127 131 -201q93 -65 215 -65h18q197 6 361 129q6 4 38.5 35.5t34.5 31.5q27 15 35 9q-51 -109 -200.5 -179.5t-313.5 -70.5q-176 0 -284 80q-123 94 -123 272z" />
<glyph unicode="D" horiz-adv-x="1048" d="M72 922q8 14 96 59q131 66 319 86q31 4 81 4q33 0 75 -2q235 -8 305 -180q43 -104 43 -230q0 -244 -141 -442q-147 -211 -363 -227q-38 -3 -102 -3q-86 0 -221 5q-8 147 -8 330q0 257 16 587q-20 -10 -84 -49zM229 500v-62q0 -149 7 -387q49 -12 116 -12q109 0 135 8 q85 4 175 55q119 66 200.5 231t81.5 331q0 156 -78 247q-88 104 -264 105q-61 0 -115 -6h-6q-53 -8 -107.5 -19.5t-131.5 -52.5q-13 -201 -13 -408v-30z" />
<glyph unicode="E" horiz-adv-x="993" d="M72 985l2 51q457 53 825 54q-55 -14 -92 -80q-69 18 -171 18q-49 0 -106 -4h-18q-75 0 -309 -25q6 -47 14 -290q1 -40 1 -75.5t-1 -66.5q172 12 512 41q4 0 4 -4q0 -2 -10 -13t-10 -16q0 -2 4 -4q-162 -16 -500 -59q-2 -102 -14 -319q-2 -39 -10 -132q121 10 260 11 q31 1 68 1q75 0 179 -3q168 -4 236 -4q-8 -6 -31.5 -36t-30.5 -30l-327 20q-41 2 -88 2q-118 0 -271 -14l-2 -8h-80v2l3 51h2l16 240q16 253 16 332v16q-2 90 -6 274q-4 25 -14 74q-16 0 -51 -4z" />
<glyph unicode="F" horiz-adv-x="907" d="M72 985l2 51q456 54 825 54q-35 -10 -72 -46q-20 -18 -41 -38q-92 21 -185 21q-35 0 -71 -3q-25 2 -53 2q-55 0 -119 -8q-78 -8 -155 -19q2 -20 12 -290q1 -40 1 -75.5t-1 -66.5q172 12 512 41q4 0 4 -4q0 -2 -10 -13t-10 -16q0 -2 4 -4q-162 -16 -500 -59 q0 -20 -16 -319q-10 -182 -31 -324h-80l37 424q17 192 17 306q0 23 -1 42q-2 90 -4 274q-4 25 -14 74q-16 0 -51 -4z" />
<glyph unicode="G" horiz-adv-x="1062" d="M72 344q0 242 202 447q180 180 433 262q87 28 160 28h5q133 0 134 -116q0 -86 -72 -121q-25 -12 -55 -13q-37 0 -37 21q0 12 14 29.5t45 56.5q16 18 35 61q-17 28 -85 28q-12 0 -26 -1q-240 -18 -450 -209q-221 -201 -221 -436q0 -39 6 -78q23 -127 131 -201 q93 -65 215 -65h18q236 6 402 168q-6 55 -13 108q-8 63 -24 105q-1 3 -12 3q-17 0 -62 -9q-57 -11 -152 -11q-76 0 -176 7q-8 0 -10 26q-4 23 0 39q35 -16 148 -16q121 0 288 16q35 4 50.5 -3t19.5 -40q4 -59 12 -174q16 -200 16 -362q0 -129 -10 -234q-25 -119 -155 -223 q-100 -80 -246 -80q-221 0 -373 151l-37 37q-73 73 -73 156q0 45 28 61q23 14 50 15q35 0 73 -23q-12 -6 -30 -22q-20 6 -37 6q-41 0 -41 -35q0 -23 18 -57q14 -23 33 -52q51 -74 164.5 -130t230.5 -56q254 0 324 273q12 75 12 216v42q-2 141 -10 217q-78 -76 -201 -121 t-250 -45q-174 0 -284 82q-125 94 -125 272z" />
<glyph unicode="H" horiz-adv-x="962" d="M72 494l4 57h57v55q0 47 -2 155.5t-2 153.5q0 25 -8 74t-8 70q3 5 16 5q17 0 53 -9q26 -61 26 -310q0 -85 -3 -192q272 6 510 47q-2 85 -2 155q0 238 26 300q34 10 52 10q14 0 18 -6q-2 -14 -14 -107q-12 -78 -13 -106q0 -45 2 -117v-117q31 6 88 19l70 -17 q-92 -23 -156 -34q2 -131 50 -580h-80q-31 156 -41 565q-262 -51 -512 -65q-14 -356 -37 -500h-80q18 164 45 496q-20 -2 -59 -2z" />
<glyph unicode="I" horiz-adv-x="264" d="M72 709q0 274 6 313q0 4 12 33q18 4 39 8q27 6 31 -4q0 -14 -8.5 -69.5t-8.5 -74.5q0 -45 2 -136t2 -138q0 -76 29 -348l31 -293h-80q-14 78 -23 193q-10 129 -21 260t-11 256z" />
<glyph unicode="J" horiz-adv-x="974" d="M72 -180q14 30 54 30h3q31 0 78 -16q4 -2 4 -4t-10.5 -10t-12.5 -15q-37 0 -38 -4l-3 -8q12 -123 101 -229q98 -119 225 -119q61 0 125 31q104 51 174 286q72 250 76 617v52q0 201 -14 306q-33 158 -64 316q2 22 70 22h6q31 -106 49 -241q23 -174 23 -375 q0 -592 -168 -887q-100 -176 -265 -176q-147 0 -276 133t-137 291z" />
<glyph unicode="K" horiz-adv-x="956" d="M72 2q14 57 14 225q0 102 -6 271q-6 195 -6 217v44q0 109 8 199q2 20 2 91q4 -2 49 -2q25 0 31 -7q0 -78 -8.5 -234.5t-8.5 -236.5q141 61 377 262q92 78 121 113q68 74 72 143q43 16 88 17q-8 -117 -256 -320q-207 -170 -363 -241q66 -61 263 -158q211 -102 299 -176 q153 -123 194 -295l-20 -39q-70 197 -238 320q-84 61 -305 157q-178 80 -236 154l7 -49q0 -10 4 -92t4 -144q0 -135 -19 -221z" />
<glyph unicode="L" horiz-adv-x="909" d="M72 -35q2 43 27.5 67.5t25.5 39.5q57 428 57 694q0 176 -49 283q-2 6 -24.5 32.5t-22.5 38.5q41 17 74 17h4q92 -66 92 -369q0 -150 -25.5 -409t-25.5 -302q262 45 381 45q174 0 266 -61q-6 -12 -37 -35l-18 -24q-16 0 -103 30q-96 35 -182 35q-59 0 -135 -14 q-4 0 -158 -37q-135 -31 -146 -31h-1z" />
<glyph unicode="M" horiz-adv-x="1107" d="M72 -2q16 137 34 274q20 174 21 277v364q0 4 -12 121l-11 23q2 2 5.5 3t5.5 1q10 8 41 0q12 -2 26 -8l6 -13l15 -30q59 -125 225 -451q29 -57 139 -211q106 145 144 211q61 109 125 215q84 150 114 232l13 32l6 13q8 4 28 8q31 4 41 -2h6q2 -2 5 -2l-13 -23 q-6 -41 -14 -121q0 -39 -6 -155q-4 -102 -4 -154v-55q0 -100 39 -551h-80q-23 172 -31 553q-1 37 -1 81q0 87 3 201q-76 -160 -156.5 -286.5t-228.5 -325.5q-53 74 -205 328q-61 102 -149 287v-65q0 -100 -4 -218q-18 -399 -47 -553h-80zM182 1053l13 -27q-4 10 -13 27z" />
<glyph unicode="N" horiz-adv-x="880" d="M72 0q47 477 47 551v55q0 47 -2 155.5t-2 153.5v-3q-2 0 -15 124l-10 23q2 2 10 2q8 10 39 2q23 -4 27 -8t8 -13l12 -30q33 -82 115 -232q59 -109 119 -217q51 -96 305 -432q-18 213 -25 469q-2 84 -2 153q0 242 27 302q34 10 52 10q14 0 18 -6q-2 -14 -15 -107 q-12 -78 -12 -106v-117q2 -88 2 -117q0 -139 51 -606l2 -4l-2 -2h-78q-2 -4 -2 0q-262 330 -397 551q-72 117 -151 285q1 -51 1 -103q0 -90 -4 -180q-16 -412 -38 -553h-80zM168 1055l12 -27q-2 4 -6 13.5t-6 13.5z" />
<glyph unicode="O" horiz-adv-x="1093" d="M72 508q0 164 65 297q70 143 195 205q63 31 92 39q79 23 201 23q29 0 61 -1q237 -8 307 -182q41 -104 41 -227q0 -256 -147 -459q-158 -215 -385 -215q-27 0 -53 4q-180 23 -285 178q-92 141 -92 338zM129 520q0 -190 107.5 -331.5t271.5 -141.5q97 0 197 55 q119 66 200.5 231t81.5 329q0 156 -78 249q-88 104 -264 105q-279 0 -397.5 -151.5t-118.5 -344.5z" />
<glyph unicode="P" horiz-adv-x="923" d="M72 874q0 4 4 9q51 29 133 78q66 43 182 75q127 37 234 37q241 0 241 -176v-12q-4 -90 -98 -191q-78 -82 -176 -133q-90 -47 -162 -69q-80 -20 -162 -43q-6 -51 -6 -153.5t6 -256.5q1 -45 1 -86q0 -196 -31 -320q4 0 6 -2q-2 -2 -33 0q-51 0 -57 7q4 -4 8 0 q49 100 49 473q0 84 -4 202q-2 131 -2 152v74q0 183 8 350q-43 -23 -121 -68q2 12 -9 30.5t-11 22.5zM270 500q143 23 236 65q274 132 282 312v9q0 84 -71 103q-28 8 -68 8q-53 0 -127 -14q-61 -12 -124.5 -25.5t-114.5 -39.5q-12 -186 -13 -418z" />
<glyph unicode="Q" horiz-adv-x="1132" d="M72 510q0 162 67.5 300t192.5 200q66 33 92 39q79 23 201 23q29 0 61 -1q238 -8 307 -182q41 -104 41 -230q0 -219 -114 -407q-123 -199 -310 -250q90 -172 271 -274q154 -84 290 -84q45 0 76 10q158 59 160 153l51 -28q-29 -125 -198 -168q-47 -12 -99 -12 q-170 0 -350 122q-166 113 -256 271q-27 -3 -53 -3l-53 3q-180 23 -285 178q-92 141 -92 340zM129 520q0 -190 107.5 -331.5t271.5 -141.5q97 0 197 55q119 66 200.5 231t81.5 329q0 156 -78 249q-88 104 -264 105q-279 0 -397.5 -151.5t-118.5 -344.5z" />
<glyph unicode="R" horiz-adv-x="956" d="M72 874q0 4 4 9q51 29 133 78q66 43 182 75q127 37 234 37q241 0 241 -175v-13q-4 -90 -98 -191q-78 -80 -176 -133q-12 -6 -39 -20q57 -94 158 -260q170 -264 309 -359q49 -35 184 -74q4 -20 -2 -41q-78 12 -149 43q-170 76 -277 236l-188 281q-35 49 -99 145 q-35 -14 -221 -63v-38q0 -158 -14 -444q4 -2 6 -4q-2 -2 -33 0q-27 2 -57 6q4 2 8 2q27 78 31 228q0 -10 -1 -10l-3 276v74q0 183 8 350q-43 -23 -121 -68q2 12 -9 30.5t-11 22.5zM270 500q143 23 236 65q274 132 282 312v9q0 84 -71 103q-28 8 -68 8q-53 0 -127 -14 q-61 -12 -124.5 -25.5t-114.5 -39.5q-12 -186 -13 -418z" />
<glyph unicode="S" horiz-adv-x="999" d="M150 360h2q37 0 75 -22q-10 -6 -30 -23q-25 8 -41 9q-35 0 -35 -33q0 -47 49 -113q53 -72 168 -121t229 -49q250 0 264 221v8q0 84 -116 175q-96 68 -195 135l-96 76q-92 70 -117 100q-53 61 -53 141q0 92 117 146q106 49 256 49q239 -1 315 -105l-41 -24q-76 76 -242 76 q-125 0 -225 -43q-106 -45 -108 -109v-1q0 -49 147 -155q266 -184 283 -200q156 -127 162 -226v-28q0 -135 -111 -221t-246 -86q-176 0 -338 126q-151 116 -151 219q0 78 78 78z" />
<glyph unicode="T" horiz-adv-x="1058" d="M74 856q51 41 88 64q63 39 159.5 79.5t276.5 79.5q258 55 504 56q256 -1 471 -62l-21 -33q-203 53 -419 54q-215 0 -523 -76q12 -123 23 -246q18 -209 18 -373q0 -381 -94 -583l-57 12q66 106 90 344q10 96 10 205q0 272 -63 627q-240 -59 -431 -197q0 6 -18 23.5 t-14 25.5z" />
<glyph unicode="U" horiz-adv-x="995" d="M72 334q0 96 10 252q8 102 14 207q10 205 13 206q14 4 41 11q6 4 32 4q2 -12 2 -39q0 -53 -8 -162q-2 -16 -20 -225q-14 -139 -15 -228q0 -117 20.5 -207t160.5 -153q111 -51 188 -51q88 0 190 51q123 61 143.5 152.5t20.5 207.5q0 88 -14 228q-18 209 -21 225 q-2 26 -2 49q0 103 37 152q27 0 33 -4q16 -1 41 -11q-23 -25 -27 -137q-2 -63 -2 -69q25 -465 25 -457q0 -147 -23 -205q-39 -100 -145 -166q-113 -71 -254 -71h-4q-147 0 -264 71q-109 66 -150 166q-22 55 -22 191v12z" />
<glyph unicode="V" horiz-adv-x="851" d="M72 1010q0 4 73 4q31 -51 41 -201q8 -195 43 -582q35 -256 88 -256q92 0 238 224q6 10 86 153q23 43 57 133q39 107 39 223q0 47 -6 95q-14 80 -43 254q16 16 66 16q39 -80 39 -297q0 -137 -29 -256q-23 -94 -120 -264t-163 -238q-84 -86 -164 -86q-53 0 -79 54 q-12 4 -27 22q-53 129 -74 385q-14 201 -28 400q-4 43 -9 88q-6 70 -28 129z" />
<glyph unicode="W" horiz-adv-x="1464" d="M72 1010q0 4 73 4q31 -51 41 -201q8 -195 43 -582q35 -256 88 -256q92 0 238 224q12 18 86 153q94 172 94 314q0 33 -12 127q-4 43 -8 88q-6 70 -29 129q0 4 74 4q31 -51 41 -201q8 -195 43 -582q35 -256 88 -256q92 0 237 224q6 10 86 153q20 37 58 133q40 103 40 219 q0 49 -7 99q-14 80 -43 254q16 16 65 16q39 -80 39 -297q0 -137 -29 -256q-23 -92 -120 -263t-162 -239q-84 -86 -164 -86q-53 0 -80 54q-12 4 -27 22q-57 137 -77 465q-43 -109 -125 -250q-84 -147 -142 -205q-84 -86 -164 -86q-53 0 -79 54q-12 4 -27 22q-53 129 -74 385 q-14 201 -28 400q-4 43 -9 88q-6 70 -28 129z" />
<glyph unicode="X" horiz-adv-x="1003" d="M-12 -119q139 344 354 643q-8 14 -145 197q-125 165 -125 174q0 17 69 45q88 -141 242 -356q329 456 545 456h12q11 -1 11 -22q0 -19 -9 -55q-20 10 -45 10q-106 0 -281 -178q-119 -121 -206 -250q63 -92 319 -369q96 -102 211 -176h-94q-193 137 -477 487 q-195 -285 -314 -581q-18 -43 -41 -43q-12 0 -26 18z" />
<glyph unicode="Y" horiz-adv-x="929" d="M72 -242l75 -26q-22 -55 -22 -106q0 -111 74.5 -180t183.5 -69q78 0 154 37q104 51 184 318q82 281 86 647v54q0 182 -12 276q-18 -117 -50 -191q-37 -94 -155.5 -264t-192.5 -236q-96 -86 -176 -86q-49 0 -71 54q-10 4 -25 22q-27 94 -27 242q0 96 14.5 282.5 t14.5 260.5q0 2 2 53q3 27 3 51q0 12 -1 23q-4 47 -14 90q0 4 76 4q17 -37 17 -119q0 -37 -3 -82q-33 -459 -33 -582q0 -256 53 -256q94 0 267 224q18 25 106 153q33 49 76 133q74 145 74 316q0 61 -9 188q-4 18 -12 64q2 22 70 22h6l2 -4q2 -4 4 -16q16 -71 43 -221 q18 -145 18 -328q0 -289 -45 -549q-49 -289 -139 -446q-111 -193 -305 -193q-160 0 -260 125q-70 89 -70 197q0 57 19 118z" />
<glyph unicode="Z" horiz-adv-x="1202" d="M72 -18q279 403 530 636q63 59 418 379q-260 -43 -463 -43q-201 0 -393 45q2 8 5 25.5t5 26.5q190 -51 369 -52q162 0 528 58q12 -2 37 -10l10 -3q-88 -121 -389 -395q-313 -285 -526 -586q59 6 235 31q109 14 205 15q434 -1 653 -263l-4 -30q-224 243 -632 243h-3 q-205 0 -569 -77h-16z" />
<glyph unicode="[" horiz-adv-x="481" d="M72 248q0 303 49 917q63 12 129 25q57 10 131 10l8 -49q-55 0 -96 -8q-55 -12 -96 -17q-8 -98 -25 -292q-25 -369 -25 -570q0 -176 15 -330q113 18 229 19q25 0 33 -41q-39 0 -123 -10q-20 -2 -90 -19q-57 -12 -90 -12q-23 16 -41 27l6 10q0 55 -7 168.5t-7 171.5z" />
<glyph unicode="\" horiz-adv-x="739" d="M72 950q70 0 90 -32q41 -80 125 -240q109 -199 200 -363q62 -114 195 -329q-53 0 -74 28q-14 20 -96 162l-342 596q-39 59 -98 178z" />
<glyph unicode="]" horiz-adv-x="481" d="M72 1159q47 0 123 8q61 16 180 33q25 -20 41 -29l-6 -8q0 -55 7 -169t7 -171q0 -252 -49 -917q-66 -12 -129 -25q-55 -10 -131 -10q-4 10 -9 47q53 0 97 10q51 12 96 17q8 98 25 291q25 336 24 559q0 182 -14 340q-129 -18 -230 -19q-29 0 -32 43z" />
<glyph unicode="^" horiz-adv-x="585" d="M72 776q4 6 213 342q37 -8 55 -14q57 -100 188 -338q-14 4 -29.5 -5t-23.5 -9q-6 0 -12 2q-25 41 -70 125q-27 37 -53 88q-37 74 -37 73q-72 -115 -176 -264h-55z" />
<glyph unicode="_" horiz-adv-x="1185" d="M72 -500q2 8 12 58l283 2h761q-2 -20 -10 -54q-328 6 -745 9q-150 -4 -301 -15z" />
<glyph unicode="`" horiz-adv-x="423" d="M72 1079q23 33 45 47q72 -33 108 -61q85 -63 142 -174l-2 -4q-86 96 -195 149q-49 23 -98 43z" />
<glyph unicode="a" horiz-adv-x="751" d="M72 113q0 164 133 327q147 181 345 181h19q12 0 13 -15q0 -66 18 -217q23 -188 62 -334l32 -10l-6 -37l-2 -6q-17 -5 -32 -5q-38 0 -68 28q-27 78 -54 305q-61 -115 -118 -178q-45 -47 -115 -95q-82 -53 -135 -59q-7 -1 -13 -1q-79 0 -79 116zM129 123q0 -68 35 -74 q39 4 135 71.5t129 121.5q86 137 86 304v15q-178 -18 -291 -178q-94 -131 -94 -260z" />
<glyph unicode="b" horiz-adv-x="604" d="M72 563q0 170 16 484q14 4 41 16q16 6 43 0v-6q0 -25 -10 -131q-20 -195 -21 -531q53 61 133 117q100 68 172 68q39 0 74 -25q25 -18 27 -51q0 -5 1 -10q0 -114 -132 -290q-137 -184 -238 -204q-55 0 -61 2q-45 246 -45 561zM147 311q0 -211 43 -266q66 41 134 121 q55 63 110 160q64 108 64 159q0 8 -2 15q-8 37 -50 37q-76 0 -178 -84q-57 -47 -121 -142z" />
<glyph unicode="c" horiz-adv-x="690" d="M74 233q0 150 92 246q113 117 274 117q121 0 121 -68q0 -25 -15.5 -55.5t-36 -31.5t-63.5 -5q41 33 41 64q0 37 -71 43q-8 1 -15 1q-64 0 -125 -46q-126 -95 -126 -257q0 -64 22 -122q33 -80 154 -80q92 0 157 47q2 2 66 61q35 31 84 39q-29 -39 -92 -110 q-88 -84 -222 -84q-195 0 -237 166q-8 35 -8 75z" />
<glyph unicode="d" horiz-adv-x="751" d="M72 113q0 152 118 309q135 180 326 196q-1 49 -1 92q0 283 34 351l80 2q-48 -133 -48 -380q0 -59 3 -124v-43q0 -90 10 -168q12 -90 51 -291l49 -12l-6 -37l-2 -6q-14 -4 -27 -4q-33 0 -61 25q-35 43 -66 307q-61 -115 -118 -178q-45 -49 -115 -95q-82 -53 -135 -59 q-7 -1 -13 -1q-79 0 -79 116zM129 123q0 -68 35 -74q39 4 135 71.5t129 121.5q86 137 86 304v15q-178 -18 -291 -178q-94 -131 -94 -260z" />
<glyph unicode="e" horiz-adv-x="626" d="M72 219q0 143 90 260q94 121 226 121h13q125 -6 125 -80q0 -57 -131 -180q-61 -57 -245 -131q8 -33 17 -65.5t28 -57.5q40 -51 112 -51h6q76 2 170.5 69.5t112.5 67.5q-14 -27 -59 -68q-115 -104 -220 -114q-18 -2 -35 -2q-96 0 -151 59q-59 63 -59 172zM145 260 q121 41 213 113q27 20 60 61q43 53 43 84q0 27 -35 33q-18 4 -37 4q-104 0 -178 -102q-66 -90 -66 -193z" />
<glyph unicode="f" horiz-adv-x="542" d="M-49 -727q117 92 170 199q45 90 61 229q8 68 8 149q0 74 -10 224.5t-10 230.5l-53 -12l-2 2l-62 -14l-8 28l2 6q23 14 127 31q-4 150 -4 186q0 432 184 504q31 12 62 13q63 -1 110 -52q0 -18 -16 -47q-45 35 -88 35q-51 0 -107 -53q-79 -77 -79 -482v-10q0 -51 2 -84 q10 0 108 13q52 5 88 5q11 0 21 -1q-6 -14 -10.5 -27.5t-24.5 -23.5l-23 8q-15 1 -31 1q-56 0 -128 -16q2 -72 14 -235q10 -150 10 -232q0 -72 -6 -135q-29 -287 -254 -440q-10 -4 -51 0z" />
<glyph unicode="g" horiz-adv-x="694" d="M-86 -311q38 23 83 23q8 0 17 -1l-18 -33q-29 -14 -29 -40q0 -31 35 -66q16 -94 137 -162.5t254 -68.5q246 0 258 213q1 13 1 28q0 145 -74 406q-51 178 -72 342q-61 -115 -119 -178q-45 -47 -115 -95q-82 -53 -135 -59q-7 -1 -13 -1q-79 0 -79 116q0 164 133 327 q147 181 346 181h19q12 0 12 -15q0 -63 18 -217q16 -141 41 -246q4 -14 11 -45q37 -125 75 -248q41 -141 41 -256q0 -135 -112 -223q-102 -80 -248 -80q-219 0 -371 152l-37 37q-82 82 -82 160q0 35 23 49zM102 123q0 -68 35 -74q39 4 135.5 71.5t128.5 121.5q86 137 86 304 v15q-178 -18 -290 -178q-94 -131 -95 -260z" />
<glyph unicode="h" horiz-adv-x="673" d="M72 6q0 51 36.5 386t36.5 495q0 139 -24 190q35 6 74 19q16 -84 16 -207q0 -176 -33 -430q-18 -125 -35 -248h-2q84 137 129 197q82 109 168 155q31 16 64 17q31 0 37 -21q3 -11 3 -36q0 -37 -7 -105q-6 -58 -6 -128q0 -26 1 -54q8 -139 45 -164q10 0 22.5 8t14.5 8 q6 -9 6 -31q0 -13 -2 -32q-33 -25 -90 -25q-61 72 -61 338v-2l4 80v18q0 35 -6 60q-51 0 -137 -97q-57 -68 -105 -145q-57 -96 -74 -150q-6 -20 -16 -102q-51 -8 -59 6z" />
<glyph unicode="i" horiz-adv-x="235" d="M55 293q0 203 17 266q22 10 39 10q18 0 30 -12q-12 -61 -12 -152q0 -40 2 -86v-131q0 -111 12 -127q17 -4 35 -18q6 -39 -8 -57q-74 0 -98 30q-16 76 -17 277zM88 762q0 139 14 162q28 4 45 3q22 0 27 -5q0 -25 -8 -80q-10 -70 -12 -80q-12 -14 -28 -14t-38 14z" />
<glyph unicode="j" horiz-adv-x="278" d="M-502 -309q31 18 70 18q27 0 41 -12q2 -8 -4 -25q-18 4 -31 4q-33 0 -33 -24q0 -18 25 -64q4 -8 33 -49q61 -86 174.5 -138t224.5 -52q104 0 171 51t67 156q4 41 4 77q0 106 -33 224q-33 98 -64 198q-33 115 -43 207q-8 61 -8 123q0 59 8.5 123.5t8.5 69.5q23 5 40 5 q27 0 37 -14q-13 -134 -13 -218q0 -20 1 -38q8 -166 59 -286q57 -182 62 -193q29 -114 31 -237v-5q0 -130 -113 -219q-102 -80 -246 -80q-221 0 -373 152l-36 37q-25 25 -52 69q-30 55 -30 93q0 33 22 47zM113 762q0 51 6 153q18 13 37 13q21 0 43 -15q1 -12 1 -24 q0 -59 -16 -119h-2q-2 -23 -30 -22q-25 0 -39 14z" />
<glyph unicode="k" horiz-adv-x="634" d="M72 186v133q0 68 20 279q18 205 19 303q0 143 -33 197l35 8q23 6 32 -2q29 -84 29 -223q0 -94 -17.5 -288t-17.5 -274q160 92 301 236q-2 -2 30 -9t32 -11q-25 -31 -56 -56q-55 -43 -61 -49q-27 -23 -205 -133q106 -53 215 -104q148 -89 183 -193h-70q-4 59 -143 150 q-131 82 -232 108q0 -145 16.5 -194.5t16.5 -57.5q-22 -10 -43 -10t-39 10v16q0 27 -4 72q-8 74 -8 92z" />
<glyph unicode="l" horiz-adv-x="294" d="M72 729q0 213 8 291q4 2 13 5t13 5q49 0 56 -6q0 -53 -6 -137q-6 -106 -9 -137q-2 -60 -2 -127q0 -101 5 -217q0 -94 20 -287q10 -47 35 -66q14 -10 41 -14q20 -2 20 -8v-45q-27 -4 -45 -4q-109 0 -125 141q-24 207 -24 576v30z" />
<glyph unicode="m" horiz-adv-x="1026" d="M72 6q0 90 10 268.5t10 266.5q25 6 74 18q6 -6 6 -41q0 -49 -14 -170q-6 -68 -15 -137q164 279 297 352q31 16 64 17q31 0 37 -21q1 -5 1 -19q0 -34 -7 -122q-3 -44 -3 -112v-36q139 225 261 293q31 16 63 17q31 0 37 -21q2 -8 2 -26q0 -36 -8 -115q-5 -45 -5 -98 q0 -40 3 -84q8 -139 45 -164q10 0 21.5 8t15.5 8q8 -10 2 -63q-33 -25 -90 -25q-59 70 -60 338q0 139 -4 156q-51 0 -135 -97q-63 -72 -107 -145q-27 -45 -36 -123q0 -27 14 -68q14 -49 33 -61h-62q-55 66 -55 338q0 139 -4 156q-51 0 -135 -97q-63 -72 -107 -145 q-57 -96 -71 -150q-6 -18 -17 -102q-53 -6 -61 6z" />
<glyph unicode="n" horiz-adv-x="673" d="M72 6q0 90 10 268.5t10 266.5q25 6 74 18q6 -6 6 -41q0 -49 -14 -170q-6 -68 -15 -137q164 279 297 352q31 16 64 17q31 0 37 -21q2 -8 2 -26q0 -36 -8 -115q-5 -48 -5 -106q0 -36 2 -76q8 -139 46 -164q10 0 21 8t15 8q8 -10 2 -63q-33 -25 -90 -25q-59 70 -59 338 q0 139 -4 156q-51 0 -135 -97q-63 -72 -107 -145q-57 -96 -71 -150q-6 -18 -17 -102q-53 -6 -61 6z" />
<glyph unicode="o" horiz-adv-x="659" d="M122 403.5q50 96.5 134 135.5q72 34 176 34h17q117 -2 143 -84q8 -30 8 -73q0 -156 -111 -291q-107 -131 -232 -131q-14 0 -28 2q-157 18 -157 209q0 102 50 198.5zM135 233q0 -78 38 -130t99 -52q45 0 97 29q66 39 119 135t53 182q0 129 -127 129h-4q-127 -2 -193 -77 q-82 -94 -82 -216z" />
<glyph unicode="p" horiz-adv-x="710" d="M72 -223q0 205 16 635q0 57 8 170l56 6q2 -2 22 -8q0 -29 -10 -99q-8 -51 -8 -85v-13q141 162 348 176q12 1 22 1q127 0 127 -109q0 -139 -157 -297q-160 -159 -331 -159q-10 0 -20 1q-2 -93 -2 -171q0 -301 25 -368l16 -45q-14 -16 -47 -16q-31 0 -47 16q-18 96 -18 365 zM145 41l56 10q135 25 263 143.5t128 229.5q0 19 -4 35q-12 47 -74 47q-84 0 -213 -72q-121 -70 -147 -123q-2 -45 -4.5 -135t-4.5 -135z" />
<glyph unicode="q" horiz-adv-x="659" d="M72 113q0 164 133 327q147 181 345 181h19q12 0 13 -15q0 -184 -2 -221q-6 -117 -7 -225q0 -313 54 -508q55 -203 157 -236l82 -26l-6 -37l-2 -6q-17 -5 -33 -5q-37 0 -67 27q-131 86 -187 314q-39 160 -41 395q2 127 2 252q-61 -119 -118 -178q-47 -49 -115 -95 q-82 -53 -135 -59q-7 -1 -13 -1q-79 0 -79 116zM129 123q0 -68 35 -74q37 4 136 78t134 127q80 127 80 291v16q-178 -18 -291 -178q-94 -131 -94 -260z" />
<glyph unicode="r" horiz-adv-x="540" d="M72 6q0 90 10 268.5t10 266.5q25 6 74 18q6 -8 6 -43v2q-2 0 -20 -235q80 186 251 280q20 10 54 6q37 -6 45 -32.5t4 -59.5q-4 -29 -8 -59l-52 -25q7 71 7 87q0 26 -19 28q-59 0 -133 -77t-137 -198q-20 -41 -25 -139q-2 -90 -6 -94q-53 -6 -61 6z" />
<glyph unicode="s" horiz-adv-x="630" d="M72 115q12 -6 12 28q2 2 3 6.5t1 6.5t2 4q10 -16 35 -47q33 -33 84 -60q82 -45 178 -45q115 0 115 90q0 12 -2 27q-8 51 -111 100q-94 43 -188 84q-104 55 -119 123q-2 9 -2 18q0 57 80 101q84 45 192 45q98 0 144 -41q-14 -20 -35 -31q-37 25 -105 25q-80 0 -152 -32 q-66 -30 -66 -65q0 -3 1 -6q4 -37 111 -81q98 -43 196 -89q111 -57 123 -118q4 -23 4 -43q0 -76 -57 -117t-143 -41q-172 0 -273 123z" />
<glyph unicode="t" horiz-adv-x="534" d="M72 489q27 16 104 37q-2 109 -2 318q17 28 72 28h4q2 -2 8 -24q-6 -123 -10 -307q140 30 211 30h4q29 0 37 -6q-2 -6 -35 -35q-96 0 -219 -30q0 -4 -2 -76q-2 -84 -2 -143q0 -182 24 -222q20 -31 51 -30q47 0 101 61q47 57 53 105q23 -33 18 -35q-51 -182 -192 -183 q-39 0 -61 17q-45 33 -56 231q-2 131 -4 260l4 2q-12 -2 -36.5 -14t-39.5 -12q-14 0 -30 8q-2 6 -2 20z" />
<glyph unicode="u" horiz-adv-x="667" d="M72 283q6 70 12 137q10 78 35 131q19 4 33 4q23 0 34 -10q-12 -45 -28 -139q-20 -180 -21 -234q0 -57 8 -104q4 -20 16.5 -24.5t24.5 -4.5q76 0 183 127q90 109 112 176q18 53 19 117v-7q-1 0 -4 123q22 4 38 4q29 0 39 -12q-12 -123 -12 -223q0 -247 72 -315l-2 2 l-49 -31q-66 25 -95 260q-59 -80 -118 -162q-93 -112 -193 -112h-2q-33 0 -65 12q-43 15 -43 159q0 54 6 126z" />
<glyph unicode="v" horiz-adv-x="555" d="M72 563q10 2 37 17q20 12 36 12q20 -139 56 -297q47 -207 86 -254q41 63 73 182q29 100 33 168q8 117 66 201l67 -6q-41 -14 -69 -125q-29 -119 -58 -236q-43 -152 -110 -233h-47q-43 27 -68 114q-18 68 -59 242q-47 201 -43 215z" />
<glyph unicode="w" horiz-adv-x="800" d="M72 598h75q20 -74 21 -176q0 -31 -2 -60q-6 -76 -6 -177q0 -61 2 -130q23 35 121 242q88 186 112 211q8 6 29 4q33 -4 31 -4q57 -195 71 -238q53 -154 107 -215q50 68 50 226q0 36 -3 77q-6 25 -6 56q0 55 15.5 107t35.5 63q20 0 59 -39q-52 -46 -52 -146q0 -11 1 -22 q2 -29 2 -57q0 -213 -96 -316h-45q-51 33 -109 186l-86 226q-172 -399 -241 -449q-35 0 -64 35q4 29 12 309v29q0 139 -34 258z" />
<glyph unicode="x" horiz-adv-x="641" d="M72 -43q35 49 101.5 145.5t98.5 143.5q-98 117 -134 191.5t-40 90.5q23 18 70 19q8 -27 27 -72q35 -74 120 -174q249 350 339 350h5q29 -37 29 -49q-2 -4 -4 -4q-76 -2 -190 -133q-78 -98 -156 -195q57 -63 115 -127q84 -90 155 -143h-55q-47 14 -154 115 q-51 51 -102 100q-84 -129 -184 -262z" />
<glyph unicode="y" horiz-adv-x="659" d="M-135 -356q0 31 22 45q31 18 68 18q29 0 43 -14q0 -6 -6 -23q-16 2 -29 2q-35 0 -35 -22q0 -18 25 -66q4 -4 35 -47q61 -86 173.5 -138t221.5 -52q104 0 168 47q70 55 74 160v31q0 121 -27 239q-33 115 -64.5 230.5t-46.5 205.5q-229 -266 -350 -266q-16 0 -28 4 q-33 10 -39 133q-2 32 -2 62q0 46 4 87q6 70 12 138q10 80 35 133q20 4 34 4q23 0 33 -10q0 -16 -13 -70.5t-15 -68.5q-20 -227 -21 -244q0 -51 8 -94q4 -25 17 -25q51 0 178 125q123 119 141 174q16 43 19 96q2 18 2 39t-2 43l-4 55q24 5 40 5q28 0 37 -13 q-11 -140 -11 -217q0 -22 1 -39q6 -145 57.5 -286.5t63.5 -192.5q31 -113 31 -238q0 -133 -113 -223q-102 -80 -246 -80q-221 0 -372 152l-37 37q-25 25 -51 69q-31 57 -31 95z" />
<glyph unicode="z" horiz-adv-x="757" d="M72 -16q139 207 309 362q117 98 231 195q-246 -39 -350 -39q-57 0 -104 8q2 23 10 57q53 -16 133 -16q88 0 348 39q33 -8 47 -15q-41 -63 -225 -231q-195 -176 -281 -297q213 20 275 21q157 -1 235 -54l-4 -45q-86 47 -290 47q-156 0 -295 -28z" />
<glyph unicode="{" horiz-adv-x="366" d="M72 -20q0 -94 84 -150q61 -41 143 -31l2 35q-137 8 -145 109q-6 80 16.5 145.5t46 131t23.5 124.5q0 61 -25 113q-20 23 -57 61q104 66 90 174q-4 35 -55 176q-45 129 -45 195q0 127 151 135l8 35q-96 6 -153 -31q-84 -53 -84 -149q0 -66 52 -201t54 -190t-69 -146 q72 -90 69 -143q-2 -55 -54 -191.5t-52 -201.5z" />
<glyph unicode="|" horiz-adv-x="221" d="M72 754q0 365 4 422q4 16 8 45q2 0 16.5 7t22.5 7t10 -8q0 -16 -6 -97q-6 -72 -6 -98q0 -61 2 -184v-184q0 -78 20 -471l21 -394h-55q-10 115 -15 258q-23 680 -22 697z" />
<glyph unicode="}" horiz-adv-x="366" d="M72 1233q96 6 153 -31q84 -53 84 -149q0 -66 -52 -201t-54 -190q-2 -51 67 -146q-70 -94 -67 -143q2 -55 54 -191.5t52 -201.5q0 -96 -84 -150q-63 -41 -145 -31l-2 35q139 8 147 109q6 78 -14 145q-27 66 -50.5 132.5t-23.5 123.5q0 61 25 113q23 23 57 61 q-104 66 -90 174q4 35 55 176q45 129 45 195q0 127 -151 135z" />
<glyph unicode="~" horiz-adv-x="813" d="M72 764q57 164 157 164q14 0 31 -4q133 -51 326 -117q47 -10 108 57q8 8 33 66q9 0 29 -4q-8 -72 -43 -127q-43 -63 -101 -64q-39 0 -157 47q-152 57 -168.5 61.5t-55.5 16.5q-35 2 -81 -40t-56 -81q-6 8 -22 25z" />
<glyph unicode="&#xa1;" horiz-adv-x="249" d="M74 252q0 258 14 315q12 6 41 6q33 0 39 -6t6 -22q0 -4 -14 -144q-12 -131 -10 -237v-150q4 -131 16 -147q-12 0 -29.5 -9.5t-25.5 -9.5q-10 0 -23 13h2q-16 84 -16 391zM104 813q0 25 2 39q2 23 13 39q61 8 74 -2q0 -23 -9 -60q-10 -43 -12 -59q-23 -27 -66 0q0 6 -2 43 z" />
<glyph unicode="&#xa2;" horiz-adv-x="692" d="M72 -143q18 23 55 88q16 31 47 80l4 6q-102 61 -102 202q0 150 92 246q113 117 274 117q25 0 47 -4q20 35 62 121l6 12q12 8 49 8q17 0 29 -4q-16 -33 -55 -98l-37 -56q39 -23 37 -63q-2 -39 -13 -39q-6 0 -26.5 17.5t-36.5 19.5l-64 -113q-70 -119 -196 -342 q37 -14 84 -14q92 0 157 45q2 2 68 61q33 31 82 39q-29 -39 -92 -110q-88 -84 -221 -84q-55 0 -105 18q-18 -33 -53 -94q-4 -8 -19 -25q-14 -23 -43 -30q-20 -6 -28 -6zM152 238q0 -61 22 -119q11 -23 31 -41q6 10 57 102l100 180q33 57 97 175l-41 8q-72 6 -139 -45 q-127 -96 -127 -260z" />
<glyph unicode="&#xa3;" horiz-adv-x="952" d="M20 25q-4 -4 5 -13l18 -12q80 53 100 88q33 39 86 39q14 0 31 -4q90 -8 172 -47q68 -37 138.5 -75t125.5 -56q29 -8 58 -8q51 0 108 26q33 18 66 37q2 4 -15 23q-86 -39 -133 -39q-45 0 -112.5 26.5t-106.5 55.5q-115 63 -117 63q-70 35 -147 51q-70 14 -119 -20 q37 123 121 370q16 0 119 5q113 2 313 6q4 12 12 39h-426q55 143 89 208q59 125 118 170q51 39 121 39q113 0 135 -92q12 12 31 47q-12 53 -66 84q-45 29 -100 29q-33 0 -57 -10q-147 -55 -228 -203q-27 -47 -106 -274h-125q-2 -18 -12 -58l119 6q-41 -143 -127 -385 q-29 -59 -50 -84q-20 -16 -39 -32z" />
<glyph unicode="&#xa4;" horiz-adv-x="784" d="M72 315l92 93q-84 76 -84 167q0 135 94 209l-92 93l43 41l96 -103q74 41 166 41q102 0 174 -47l117 115q6 -10 18 -35q-49 -53 -102 -107q45 -43 55 -100t6 -107q-6 -88 -65 -151q88 -88 137 -143q-4 -2 -35 -23q-14 14 -60 61.5t-75 75.5q-84 -63 -197 -63 q-88 0 -155 43q-72 -76 -103 -109q-4 10 -14 25.5t-16 23.5zM154 582q0 -82 72.5 -137.5t162.5 -55.5q86 0 141 53q64 62 64 179q0 90 -64 143q-57 47 -141 47q-94 0 -160 -57q-76 -63 -75 -172z" />
<glyph unicode="&#xa5;" horiz-adv-x="804" d="M72 895q4 18 69 45q88 -141 242 -356q338 469 557 456q20 -2 2 -77q-20 10 -45 10q-106 0 -281 -178q-119 -121 -206 -250q-8 -45 -11 -68h303q-4 -8 -12 -39q-102 0 -293 -6q-2 -45 2 -125v-76h303q-4 -8 -12 -38q-100 0 -291 -7q0 -121 13 -137q16 -4 34 -18 q6 -39 -8 -58q-74 0 -98 31q-10 45 -14 180q-8 0 -250 -12q2 8 12 57l236 2q0 139 4 199q-12 0 -252 -12q2 8 12 57l242 2q4 41 6 55q-16 23 -150 201q-117 156 -114 162z" />
<glyph unicode="&#xa7;" horiz-adv-x="622" d="M72 84q6 2 11 23.5t7 25.5q25 -33 47.5 -61.5t65.5 -55.5q78 -47 168 -47q111 0 110 99q0 14 -2 28q-8 57 -104 111q-90 45 -180 92q-100 59 -113 133q-14 82 90 137q-70 49 -80 107q-4 25 -4 47q0 82 57 131q53 43 138 43q164 0 256 -135l26 -39q-6 -2 -10 -21 q-4 -25 -8 -28q-23 33 -47 65q-20 25 -66 52q-78 47 -168 47q-111 0 -110 -97q0 -14 2 -28q8 -57 106 -111l180 -94q98 -59 111 -133q12 -68 -94 -133q74 -51 84 -111q4 -25 4 -49q0 -80 -52.5 -124t-131.5 -44q-162 0 -265 133zM137 459q0 -49 119 -113q80 -39 158 -76 q88 35 88 78q0 51 -121 115q-78 37 -158 74q-86 -35 -86 -78z" />
<glyph unicode="&#xa8;" horiz-adv-x="464" d="M72 995q0 57 34 82q51 1 76 -28l-1 -3q-1 -4 -3 -6q-6 -43 -49 -86q-29 0 -51 9q-6 16 -6 32zM297 995q0 57 35 82q51 1 76 -28l-1 -3q-1 -4 -4 -6q-6 -43 -49 -86q-29 0 -51 9q-6 16 -6 32z" />
<glyph unicode="&#xa9;" horiz-adv-x="872" d="M72 709q0 160 118 268q113 100 263 100q156 0 262 -112q100 -107 100 -248q0 -160 -115 -264q-109 -96 -260 -97q-152 0 -260 104.5t-108 248.5zM131 711q0 -143 96 -230q88 -78 213 -78t211 78q97 87 97 232q0 152 -97 239q-86 80 -211 80t-213 -80q-96 -90 -96 -241z M213 631q0 100 84 184q74 74 178 107q61 20 96 8t35 -49q0 -27 -16.5 -46.5t-42.5 -19.5q-25 0 -25 16q0 31 21 35l6 13v-2l-4 -7h-2q8 4 16 21q-4 2 -33 2q-119 -16 -192 -98q-66 -72 -66 -156q0 -127 138 -123q88 2 143 57q16 17 26 21q14 12 31 -2q-23 -47 -89 -80 t-138 -33q-166 0 -166 152z" />
<glyph unicode="&#xaa;" horiz-adv-x="724" d="M72 700q0 119 127 238q147 135 350 129q10 0 10 -10q0 -37 19 -156q20 -135 59 -239l31 -9l-6 -26l-3 -4q-53 -14 -96 16q-25 53 -51 219q-61 -88 -113 -129q-125 -102 -239 -111q-88 -6 -88 82zM127 709q0 -49 33 -54q37 4 129 52.5t125 87.5q86 104 82 229 q-170 -12 -279 -129q-90 -94 -90 -186z" />
<glyph unicode="&#xab;" d="M72 332l49 26q8 4 20 11q70 37 174 166q16 23 54 59q33 -8 37 -27q-100 -139 -211 -219q161 -113 237 -252q-23 -33 -67 -43q-8 8 -33 47q-61 96 -180 174q-47 31 -80 58zM338 332l49 26q8 4 21 11q70 37 174 166q16 23 53 59q33 -8 37 -27q-100 -139 -211 -219 q161 -113 237 -252q-23 -33 -67 -43q-8 8 -33 47q-61 96 -180 174q-47 31 -80 58z" />
<glyph unicode="&#xac;" horiz-adv-x="757" />
<glyph unicode="&#xad;" d="M72 397q2 8 12 58l614 2q-4 -8 -12 -39q-113 -2 -313 -6q-150 -4 -301 -15z" />
<glyph unicode="&#xae;" horiz-adv-x="872" d="M72 709q0 154 112.5 261t266.5 107q158 0 264 -112q100 -106 100 -248q0 -166 -115 -260q-18 -25 -43 -37q-94 -61 -215 -62q-152 0 -261 100.5t-109 250.5zM131 711q0 -131 90 -219.5t221 -88.5q109 0 193 66q-55 35 -91 89t-112 165q-20 -8 -80 -23v-94q0 -43 -6 -92 q6 -2 0 -8q-4 -2 -10 -2h-6q-2 2 -4 2h-9q2 0 -14 2q-6 6 4 10q12 35 8 193q0 41 4 159q-14 -6 -49 -28q2 8 0 16l-2 4l-2 2q-2 4 -2 8q0 6 29 25q18 10 26 16q68 45 168 45q109 0 105 -79q-4 -74 -123 -140q20 -37 59 -100q33 -49 58 -82q47 -61 69 -70q92 86 93 226 q0 143 -101 237q-90 84 -201 84q-135 0 -225 -93t-90 -230zM352 731q49 6 88 25q104 47 109 118q2 33 -25 41q-29 8 -123 -12q-20 -4 -43 -14q-6 -74 -6 -158z" />
<glyph unicode="&#xb0;" horiz-adv-x="604" d="M72 891q0 109 70.5 169t189.5 60h6q80 0 136 -39t69 -102q4 -41 4 -66v-22q-10 -96 -79 -147.5t-169 -53.5h-8q-80 0 -149.5 60.5t-69.5 140.5zM133 897q0 -70 66 -117q59 -43 131 -43q76 0 120 51.5t46 139.5q0 18 -7 30q-18 125 -151 125h-6q-92 0 -145.5 -49 t-53.5 -137z" />
<glyph unicode="&#xb1;" d="M72 8q2 8 12 58l614 2q-4 -8 -12 -39q-113 -2 -313 -6q-150 -4 -301 -15zM72 397q2 8 12 58l283 2v264h59l-10 -264h282q-4 -8 -12 -39l-272 -6q-6 -125 -13 -260q-16 4 -41 8q2 74 7 252q-197 -8 -295 -15z" />
<glyph unicode="&#xb2;" horiz-adv-x="571" d="M72 932q0 39 22 74q51 82 197 81q35 0 61 -6q152 -39 152 -166q0 -92 -64 -131q-39 -23 -137 -34q-78 -18 -114.5 -54.5t-67.5 -136.5q90 33 203 33q127 0 190 -43q-2 -4 -6 -12.5t-16 -14.5l-11 -14q-8 0 -57 18q-74 29 -133 29q-27 0 -53 -6q-168 -35 -164 -37v18 q25 207 186 242q29 6 45 6q156 29 156 150q0 49 -49.5 90t-120.5 41q-55 0 -109 -25q-70 -33 -73 -86q0 -8 6 -22.5t6 -22.5q0 -14 -12 -26q-37 10 -37 55z" />
<glyph unicode="&#xb3;" horiz-adv-x="645" d="M72 647q0 47 43 55q14 -12 14 -26q0 -8 -7 -23.5t-7 -23.5q4 -59 90 -94q63 -27 129 -27q88 0 149 47q55 41 56 94q0 139 -164 158l-70 8q-29 4 -43 -4l-4 31q217 51 203 143q2 61 -107 62q-51 0 -92 -19q-47 -20 -53 -55l8 -37q-8 -6 -18 -6q-35 0 -37 39q8 33 26 55 q45 55 140 61q178 10 182 -98q2 -53 -39 -94q-25 -25 -94 -49q78 -4 137 -45q74 -51 74 -140q0 -70 -49 -116q-78 -76 -203 -76q-164 0 -236 98q-29 39 -28 82z" />
<glyph unicode="&#xb4;" horiz-adv-x="423" d="M72 891q84 160 252 235q27 -16 43 -47q-49 -20 -97 -43q-109 -53 -196 -149z" />
<glyph unicode="&#xb5;" horiz-adv-x="647" d="M72 -272q0 113 16 358.5t16 333.5t-10 131q49 10 68 -6q0 -16 6 -68.5t6 -91.5q0 -33 -4 -63q-18 -143 -18 -185q0 -82 26 -94q12 -6 27 -6q70 0 176 125q92 106 117 180q37 102 32 231q45 10 60 -6q-12 -195 -86 -307q-25 -31 -62 -96q-18 -49 -18 -98q0 -113 88 -199 h-2q-68 0 -111 70q-35 57 -43 131q-88 -88 -157 -88q-18 0 -39 4q0 -20 -4 -138q-6 -125 -6 -178q0 -63 6 -71q16 -6 34 -25q12 -45 -8 -80q-70 0 -94 43q-16 68 -16 193z" />
<glyph unicode="&#xb6;" horiz-adv-x="1034" d="M72 668v28q4 172 174 295q156 113 336 113q158 0 276.5 -78t118.5 -178q0 -49 -33 -96q-20 -29 -63 -29q-27 0 -60 10q4 2 17 15q92 -14 92 61q0 82 -86 147q-47 37 -113 54q4 -119 0 -420q0 -59 -6 -207q-4 -133 -4 -209q0 -344 41 -422q10 -27 20 -51q29 -53 88 -88 q-2 -2 -14 2l-12 4q-37 14 -74 27q-47 25 -80 80l-8 24q-29 115 -29 311q0 20 15 408q-2 49 -2 141q4 268 -4 414q-88 10 -164 2q33 -106 49 -235q23 -174 22 -375q0 -592 -168 -887q-117 -203 -188 -203q-33 0 -33 39q0 61 70 68q104 51 172 286q74 250 78 617v76 q-211 12 -330 100q-94 72 -98 156zM160 729q-8 -90 69 -156q89 -73 269 -96q-2 145 -21 254q-27 139 -55 279v2q-244 -63 -262 -283z" />
<glyph unicode="&#xb7;" horiz-adv-x="237" d="M72 506q2 45 34 69q45 1 74 -28q0 -2 -1 -5t-3 -5q-6 -45 -47 -86q-33 0 -51 8q-6 25 -6 47z" />
<glyph unicode="&#xb8;" horiz-adv-x="530" d="M72 -297q0 20 20 29q90 16 109 22q65 16 104 41q111 74 111 133q0 49 -82 76q-37 12 -37 29q0 18 33 18q10 0 18 -4q37 -2 75 -28.5t46 -67.5q4 -16 4 -31q0 -59 -49 -102q-14 -12 -82 -56q-104 -66 -246 -81q-25 -12 -24 22z" />
<glyph unicode="&#xb9;" horiz-adv-x="292" d="M72 942v2l2 8l2 13q0 2 6 6l10 4q80 31 113 110q12 2 26 -6q0 -12 -3 -38.5t-3 -36.5v-158q0 -133 2 -178l9 -179h-48q-6 31 -6 95v82q0 29 -2 61q-2 27 -2 37q-2 55 0 98q4 80 -14 88q-2 0 -86 -14q-6 0 -6 6z" />
<glyph unicode="&#xbb;" d="M72 96q23 -33 67 -43q4 4 33 47q66 98 180 174q27 16 80 58l-49 26q-6 2 -21 11q-70 35 -174 166q-14 23 -53 59q-16 -4 -22 -8q-12 -6 -15 -19q109 -145 211 -219q-157 -111 -237 -252zM338 96q23 -33 68 -43q4 4 32 47q66 98 180 174q27 16 80 58l-49 26q-6 2 -20 11 q-70 35 -174 166q-14 23 -54 59q-16 -4 -22 -8q-12 -6 -14 -19q109 -145 210 -219q-157 -111 -237 -252z" />
<glyph unicode="&#xbc;" horiz-adv-x="1210" d="M72 942v2l2 8l2 13q0 2 6 6l10 4q80 31 113 110q12 2 26 -6q0 -12 -3 -38.5t-3 -36.5v-158q0 -133 2 -178l9 -179h-48q-6 31 -6 95v82q0 29 -2 61q-2 27 -2 37q-2 55 0 98q4 80 -14 88q-2 0 -86 -14q-6 0 -6 6zM135 -20q18 23 55 88q90 156 136 235l100 180 q27 47 109 197q94 174 127 248l6 12q12 8 49 8q16 0 28 -4q-10 -18 -30 -55q-10 -18 -25 -43l-463 -807q-4 -8 -18 -25q-14 -23 -43 -30q-20 -6 -29 -7zM643 219q0 6 7 16.5t7 12.5q92 219 93 327q0 68 -27 113q10 29 65 29q8 -37 9 -82q0 -80 -27 -184q-27 -88 -53 -179 q59 18 184 43q8 27 19 138q0 20 2 63q4 6 25.5 22.5t31.5 18.5q0 -98 -23 -238q154 14 183 -14q16 -16 16 -29q0 -18 -35 -16q-25 14 -69 35q-59 0 -101 -8q-23 -178 2 -246q4 -4 9 -18q-14 -27 -54 -31q-23 39 -22 129q0 61 12 162q-29 -4 -91.5 -21.5t-129.5 -40.5 q-20 -8 -31 -8q-2 2 -2 6z" />
<glyph unicode="&#xbd;" horiz-adv-x="1101" d="M72 942v2l2 8l2 13q0 2 6 6l10 4q80 31 113 110q12 2 26 -6q0 -12 -3 -38.5t-3 -36.5v-158q0 -133 2 -178l9 -179h-48q-6 31 -6 95v82q0 29 -2 61q-2 27 -2 37q-2 55 0 98q4 80 -14 88q-2 0 -86 -14q-6 0 -6 6zM135 -20q18 23 55 88q90 156 136 235l100 180 q27 47 109 197q94 174 127 248l6 12q12 8 49 8q16 0 28 -4q-10 -18 -30 -55q-10 -18 -25 -43l-463 -807q-4 -8 -18 -25q-14 -23 -43 -30q-20 -6 -29 -7zM602 -23q0 14 2 19q25 207 187 242q18 4 43 8q86 14 120.5 47t34.5 102q0 47 -45 86q-51 45 -123 45q-55 0 -108 -26 q-70 -33 -74 -86q0 -8 6 -22.5t6 -20.5q0 -14 -14 -27q-35 8 -35 51q0 39 23 76q53 86 196 86q35 0 62 -8q152 -39 151 -168q0 -92 -63 -131q-39 -23 -137 -35q-78 -18 -113 -51q-41 -39 -70 -139q92 35 207 34q125 0 186 -45q-2 -4 -6 -13t-16 -11l-10 -15q-12 0 -60 17 q-78 27 -133 26q-27 0 -51 -4q-2 0 -88 -20q-70 -18 -78 -17z" />
<glyph unicode="&#xbe;" horiz-adv-x="1392" d="M72 647q0 47 43 55q14 -12 14 -26q0 -8 -7 -23.5t-7 -23.5q4 -59 90 -94q63 -27 129 -27q88 0 149 47q55 41 56 94q0 139 -164 158l-70 8q-29 4 -43 -4l-4 31q217 51 203 143q2 61 -107 62q-51 0 -92 -19q-47 -20 -53 -55l8 -37q-8 -6 -18 -6q-35 0 -37 39q8 33 26 55 q45 55 140 61q178 10 182 -98q2 -53 -39 -94q-25 -25 -94 -49q78 -4 137 -45q74 -51 74 -140q0 -70 -49 -116q-78 -76 -203 -76q-164 0 -236 98q-29 39 -28 82zM317 -20q18 23 56 88q16 31 47 79q23 41 88 156l100 180q27 47 109 197q94 174 127 248l6 12q12 8 49 8 q17 0 29 -4q-10 -18 -31 -55q-10 -18 -25 -43l-462 -807q-4 -8 -19 -25q-14 -23 -43 -30q-20 -6 -29 -7zM823 219q0 6 8.5 16.5t8.5 12.5q90 225 90 327q0 68 -27 113q14 29 68 29q10 -39 10 -84q0 -82 -29 -184q-27 -88 -53 -177q59 18 182 43q8 27 19 138q0 20 2 63 q27 37 57 41q0 -98 -22 -238q154 14 184 -14q14 -14 14 -29q1 -18 -32 -16q-25 14 -70 35q-59 0 -100 -8q-23 -182 2 -246q4 -6 6 -18q-12 -27 -54 -31q-20 39 -20 129q0 74 12 162q-29 -4 -91 -21.5t-130 -40.5q-20 -8 -31 -8q-4 2 -4 6z" />
<glyph unicode="&#xbf;" horiz-adv-x="866" d="M72 127q8 229 331 276q139 20 140 113q0 37 -25.5 68.5t-62.5 38.5l2 18v14q57 -2 97 -46t40 -101q0 -111 -139 -146q-16 -6 -72 -16q-240 -27 -248 -235q-2 -76 81 -141.5t210 -65.5q98 0 190 39q125 53 134 139q0 10 -15 51q-14 31 17 57q57 -12 57 -69q0 -63 -48 -129 t-149 -105q-88 -37 -188 -37q-49 0 -90 11q-268 61 -262 266zM449 797q4 39 6 118q23 27 65 0q14 -94 0 -120q-61 -8 -71 2z" />
<glyph unicode="&#xc0;" horiz-adv-x="1105" d="M27 -37l16 23q0 8 35 43q2 2 190 319q27 45 62 121l-56 -8q0 20 5 57l75 8q80 184 129 348l43 144q2 10 -18 53q27 27 80 27q8 -8 10 -27q14 -100 137 -506l101 13q14 -10 47 -27l-140 -19v-2q96 -324 258 -477q14 0 39 13l39 -50q-84 -39 -118 -39q-156 109 -291 543 q-96 -12 -289 -41q-16 -35 -45 -102q-27 -74 -109 -219.5t-116 -184.5q-18 -20 -58 -20q-18 0 -26 10zM397 1389q25 37 45 45q66 -27 109 -60q84 -65 141 -174l-2 -4q-88 96 -196 150q-47 20 -97 43zM401 530q94 11 256 27q-61 205 -102 365q-98 -262 -154 -392z" />
<glyph unicode="&#xc1;" horiz-adv-x="1105" d="M27 -37l16 23q0 8 35 43q2 2 190 319q27 45 62 121l-56 -8q0 20 5 57l75 8q80 184 129 348l43 144q2 10 -18 53q27 27 80 27q8 -8 10 -27q14 -100 137 -506l101 13q14 -10 47 -27l-140 -19v-2q96 -324 258 -477q14 0 39 13l39 -50q-84 -39 -118 -39q-156 109 -291 543 q-96 -12 -289 -41q-16 -35 -45 -102q-27 -74 -109 -219.5t-116 -184.5q-18 -20 -58 -20q-18 0 -26 10zM397 1200q86 166 250 234q20 -8 45 -45q-49 -23 -96 -43q-109 -53 -197 -150zM401 530q94 11 256 27q-61 205 -102 365q-98 -262 -154 -392z" />
<glyph unicode="&#xc2;" horiz-adv-x="1105" d="M27 -37l16 23q0 8 35 43q2 2 190 319q27 45 62 121l-56 -8q0 20 5 57l75 8q80 184 129 348l43 144q2 10 -18 53q27 27 80 27q8 -8 10 -27q14 -100 137 -506l101 13q14 -10 47 -27l-140 -19v-2q96 -324 258 -477q14 0 39 13l39 -50q-84 -39 -118 -39q-156 109 -291 543 q-96 -12 -289 -41q-16 -35 -45 -102q-27 -74 -109 -219.5t-116 -184.5q-18 -20 -58 -20q-18 0 -26 10zM358 1192q61 84 197 260h31q16 4 28 0q41 -64 164 -254q-16 0 -26 -8q-16 -8 -31 -4q-68 113 -78 123q-12 23 -61 92q-96 -127 -168 -209h-56zM401 530q94 11 256 27 q-61 205 -102 365q-98 -262 -154 -392z" />
<glyph unicode="&#xc3;" horiz-adv-x="1105" d="M27 -37l16 23q0 8 35 43q2 2 190 319q27 45 62 121l-56 -8q0 20 5 57l75 8q80 184 129 348l43 144q2 10 -18 53q27 27 80 27q8 -8 10 -27q14 -100 137 -506l101 13q14 -10 47 -27l-140 -19v-2q96 -324 258 -477q14 0 39 13l39 -50q-84 -39 -118 -39q-156 109 -291 543 q-96 -12 -289 -41q-16 -35 -45 -102q-27 -74 -109 -219.5t-116 -184.5q-18 -20 -58 -20q-18 0 -26 10zM346 1237q39 170 111 170q10 0 20 -4q82 -51 203 -115q33 -10 59 41q4 6 31 80q21 0 33 -4q-6 -68 -35 -123q-33 -63 -72 -63q-23 0 -98 45q-100 59 -104 61 q-10 4 -35 16q-23 2 -52.5 -39.5t-33.5 -78.5q-2 4 -13.5 7t-13.5 7zM401 530q94 11 256 27q-61 205 -102 365q-98 -262 -154 -392z" />
<glyph unicode="&#xc4;" horiz-adv-x="1105" d="M27 -37l16 23q0 8 35 43q2 2 190 319q27 45 62 121l-56 -8q0 20 5 57l75 8q80 184 129 348l43 144q2 10 -18 53q27 27 80 27q8 -8 10 -27q14 -100 137 -506l101 13q14 -10 47 -27l-140 -19v-2q96 -324 258 -477q14 0 39 13l39 -50q-84 -39 -118 -39q-156 109 -291 543 q-96 -12 -289 -41q-16 -35 -45 -102q-27 -74 -109 -219.5t-116 -184.5q-18 -20 -58 -20q-18 0 -26 10zM401 530q94 11 256 27q-61 205 -102 365q-98 -262 -154 -392zM410 1282q0 57 34 82q51 0 76 -29l-1 -3t-3 -5q-6 -43 -49 -86q-29 0 -51 8q-6 16 -6 33zM635 1282 q0 57 35 82q50 0 75 -29l-1 -3q-1 -3 -3 -5q-6 -43 -49 -86q-29 0 -51 8q-6 16 -6 33z" />
<glyph unicode="&#xc5;" horiz-adv-x="1105" d="M27 -37l16 23q0 8 35 43q2 2 190 319q27 45 62 121l-56 -8q0 20 5 57l75 8q80 184 129 348l43 144q2 10 -18 53q27 27 80 27q8 -8 10 -27q14 -100 137 -506l101 13q14 -10 47 -27l-140 -19v-2q96 -324 258 -477q14 0 39 13l39 -50q-84 -39 -118 -39q-156 109 -291 543 q-96 -12 -289 -41q-16 -35 -45 -102q-27 -74 -109 -219.5t-116 -184.5q-18 -20 -58 -20q-18 0 -26 10zM391 1307q0 84 55 131q47 43 117 43q55 0 97 -30t51 -81q4 -27 4 -47q0 -72 -46 -120t-118 -48q-63 0 -111.5 41t-48.5 111zM401 530q94 11 256 27q-61 205 -102 365 q-98 -262 -154 -392zM449 1311q0 -45 35.5 -75t78.5 -30q100 0 101 127q0 2 -5 19q-22 82 -88 82q-123 0 -122 -123z" />
<glyph unicode="&#xc6;" horiz-adv-x="1570" d="M-461 -260q0 27 34 45t81 8q119 -10 301 154q201 180 379 491l16 29q-72 -4 -135 -14q0 2 6 59l166 16q86 141 148 297q37 98 73 199q12 0 44 6t38 6q461 53 826 54q-55 -14 -93 -80q-102 27 -276 14q-61 4 -328 -25q6 -47 15 -290q2 -80 0 -142q172 12 512 41q4 0 4 -4 q0 -2 -10.5 -13t-10.5 -16q0 -2 4 -4q-162 -16 -499 -59q-2 -102 -15 -319q-2 -39 -10 -132q121 10 260 11q92 2 248 -2q168 -4 235 -4q-8 -6 -31.5 -36t-29.5 -30l-328 20q-145 8 -358 -12l-2 -8h-80v2l2 51h2l31 451q-61 -4 -269 -23q-2 0 -53 -6q-307 -514 -602 -678 q-160 -88 -242 -88q-53 0 -53 31zM473 535l29 4l258 22v80q-2 47 -3 138t-3 136q-4 25 -15 74q-20 -2 -65 -10q-25 -80 -66 -176q-37 -88 -135 -268z" />
<glyph unicode="&#xc7;" horiz-adv-x="1062" d="M72 344q0 242 204 447q176 180 431 262q88 29 163 28q37 0 62 -8q72 -25 72 -106q0 -88 -70 -123q-8 -4 -55 -15q-33 0 -33 23q0 12 8 29q0 8 23.5 28.5t23.5 28.5q35 39 35 61q-18 33 -111 27q-236 -14 -450 -209q-223 -205 -223 -436q0 -39 8 -78q25 -127 131 -201 q98 -68 233 -65q39 0 66 6q18 12 41 6q139 31 254 117q6 4 38.5 35.5t34.5 31.5q27 14 35 9q-70 -147 -291 -215q57 -41 58 -107q0 -59 -47 -102q-16 -14 -82 -56q-104 -63 -246 -81q-27 -12 -27 22q0 20 23 29q96 18 108 22q66 16 105 41q109 72 108 131q0 49 -81 78h-3 q-70 -12 -137 -12q-176 0 -284 80q-125 94 -125 272z" />
<glyph unicode="&#xc8;" horiz-adv-x="993" d="M72 985l2 51q457 53 825 54q-55 -14 -92 -80q-102 27 -277 14q-61 4 -327 -25q6 -47 14 -290q2 -80 0 -142q172 12 512 41q4 0 4 -4q0 -2 -10 -13t-10 -16q0 -2 4 -4q-162 -16 -500 -59q-2 -102 -14 -319q-2 -39 -10 -132q121 10 260 11q92 2 247 -2q168 -4 236 -4 q-8 -6 -31.5 -36t-30.5 -30l-327 20q-145 8 -359 -12l-2 -8h-80v2l3 51h2l16 240q18 281 16 348q-2 90 -6 274q-4 25 -14 74q-16 0 -51 -4zM332 1389q25 37 45 45q66 -27 108 -60q85 -65 142 -174v-4q-88 96 -197 150q-49 20 -98 43z" />
<glyph unicode="&#xc9;" horiz-adv-x="993" d="M72 985l2 51q457 53 825 54q-55 -14 -92 -80q-102 27 -277 14q-61 4 -327 -25q6 -47 14 -290q2 -80 0 -142q172 12 512 41q4 0 4 -4q0 -2 -10 -13t-10 -16q0 -2 4 -4q-162 -16 -500 -59q-2 -102 -14 -319q-2 -39 -10 -132q121 10 260 11q92 2 247 -2q168 -4 236 -4 q-8 -6 -31.5 -36t-30.5 -30l-327 20q-145 8 -359 -12l-2 -8h-80v2l3 51h2l16 240q18 281 16 348q-2 90 -6 274q-4 25 -14 74q-16 0 -51 -4zM332 1200q86 166 250 234q20 -8 45 -45h2q-49 -23 -97 -43q-109 -53 -196 -150z" />
<glyph unicode="&#xca;" horiz-adv-x="993" d="M72 985l2 51q457 53 825 54q-55 -14 -92 -80q-102 27 -277 14q-61 4 -327 -25q6 -47 14 -290q2 -80 0 -142q172 12 512 41q4 0 4 -4q0 -2 -10 -13t-10 -16q0 -2 4 -4q-162 -16 -500 -59q-2 -102 -14 -319q-2 -39 -10 -132q121 10 260 11q92 2 247 -2q168 -4 236 -4 q-8 -6 -31.5 -36t-30.5 -30l-327 20q-145 8 -359 -12l-2 -8h-80v2l3 51h2l16 240q18 281 16 348q-2 90 -6 274q-4 25 -14 74q-16 0 -51 -4zM250 1192q61 84 196 260h31q16 4 29 0q41 -64 164 -254q-16 0 -27 -8q-16 -8 -31 -4q-68 113 -77 123q-12 23 -62 92 q-96 -127 -168 -209h-55z" />
<glyph unicode="&#xcb;" horiz-adv-x="993" d="M72 985l2 51q457 53 825 54q-55 -14 -92 -80q-102 27 -277 14q-61 4 -327 -25q6 -47 14 -290q2 -80 0 -142q172 12 512 41q4 0 4 -4q0 -2 -10 -13t-10 -16q0 -2 4 -4q-162 -16 -500 -59q-2 -102 -14 -319q-2 -39 -10 -132q121 10 260 11q92 2 247 -2q168 -4 236 -4 q-8 -6 -31.5 -36t-30.5 -30l-327 20q-145 8 -359 -12l-2 -8h-80v2l3 51h2l16 240q18 281 16 348q-2 90 -6 274q-4 25 -14 74q-16 0 -51 -4zM311 1282q0 57 35 82q51 0 76 -29h2q-4 -2 -4 -8q-6 -43 -49 -86q-29 0 -52 8q-8 20 -8 33zM537 1282q0 57 34 82q49 0 78 -29 q-4 -2 -4 -8q-6 -43 -49 -86q-29 0 -51 8q-8 20 -8 33z" />
<glyph unicode="&#xcc;" horiz-adv-x="264" d="M-16 1389q25 37 45 45q66 -27 108 -60q87 -65 144 -174l-2 -4q-88 96 -197 150q-49 20 -98 43zM102 709q0 274 7 313q0 4 12 33q18 4 39 8q27 6 30 -4q0 -14 -8 -69.5t-8 -74.5q0 -45 2 -136t2 -138q0 -76 29 -348l31 -293h-80q-14 78 -23 193q-10 129 -21.5 260 t-11.5 256z" />
<glyph unicode="&#xcd;" horiz-adv-x="264" d="M-16 1200q86 166 249 234q15 -6 48 -45q-49 -23 -97 -43q-109 -53 -196 -150zM102 709q0 274 7 313q0 4 12 33q18 4 39 8q27 6 30 -4q0 -14 -8 -69.5t-8 -74.5q0 -45 2 -136t2 -138q0 -76 29 -348l31 -293h-80q-14 78 -23 193q-10 129 -21.5 260t-11.5 256z" />
<glyph unicode="&#xce;" horiz-adv-x="264" d="M-78 1192q61 84 197 260h31q16 4 28 0q41 -64 164 -254q-16 0 -27 -8q-16 -8 -30 -4q-68 113 -78 123q-12 23 -62 92q-96 -127 -168 -209h-55zM102 709q0 274 7 313q0 4 12 33q18 4 39 8q27 6 30 -4q0 -14 -8 -69.5t-8 -74.5q0 -45 2 -136t2 -138q0 -76 29 -348l31 -293 h-80q-14 78 -23 193q-10 129 -21.5 260t-11.5 256z" />
<glyph unicode="&#xcf;" horiz-adv-x="264" d="M-37 1282q0 57 35 82q51 0 76 -29h2q-4 -2 -4 -8q-6 -43 -49 -86q-29 0 -52 8q-8 20 -8 33zM82 709q0 274 6 313q0 4 12 33q18 4 39 8q27 6 31 -4q0 -14 -8 -69.5t-8 -74.5q0 -45 2 -136t2 -138q0 -76 28 -348l31 -293h-80q-14 78 -22 193q-10 129 -21.5 260t-11.5 256z M188 1282q0 57 35 82q49 0 78 -29q-4 -2 -4 -8q-6 -43 -49 -86q-29 0 -51 8q-8 20 -9 33z" />
<glyph unicode="&#xd0;" horiz-adv-x="1095" d="M72 479q2 8 12 58h121q8 252 14 372q-20 -10 -84 -49l-16 62q8 14 96 59q131 66 320 86q51 6 155 2q236 -8 305 -180q43 -104 43 -230q0 -244 -141 -442q-147 -211 -362 -227q-88 -6 -324 2q-8 154 -8 325q0 84 2 170q-45 -2 -133 -8zM276 489q0 -373 7 -438 q49 -12 116 -12q109 0 136 8q84 4 174 55q119 66 200.5 231t81.5 331q0 156 -78 247q-88 104 -264 105q-61 0 -114 -6h-7q-53 -8 -107 -19.5t-132 -52.5q-12 -168 -13 -399h422q-4 -8 -12 -39q-113 -2 -313 -6q-31 0 -97 -5z" />
<glyph unicode="&#xd1;" horiz-adv-x="880" d="M72 0q47 477 47 551v55q0 47 -2 155.5t-2 153.5q0 -23 -15 121l-10 23q2 2 10 2q8 10 39 2q23 -4 27 -8t8 -13l12 -30q33 -82 115 -232q59 -109 119 -217q51 -96 305 -432q-18 213 -25 469q-10 377 25 455q61 18 70 4q-2 -14 -15 -107q-12 -78 -12 -106v-117 q2 -88 2 -117q0 -139 51 -606l2 -4l-2 -2h-78q-2 -4 -2 0q-262 330 -397 551q-72 117 -151 285q4 -141 -3 -283q-16 -412 -38 -553h-80zM168 1055l12 -27q-2 4 -6 13.5t-6 13.5zM201 1237q39 170 110 170q10 0 21 -4q82 -51 203 -115q33 -10 59 41q4 6 31 80q18 0 34 -4 q-6 -68 -34 -123q-33 -63 -72 -63q-20 0 -98 45q-53 31 -105 61q-10 4 -35 16q-23 2 -52.5 -39.5t-33.5 -78.5q-10 4 -28 14z" />
<glyph unicode="&#xd2;" horiz-adv-x="1093" d="M72 508q0 164 65 297q70 143 195 205q63 31 92 39q98 29 262 22q237 -8 307 -182q41 -104 41 -227q0 -256 -147 -459q-158 -215 -385 -215q-27 0 -53 4q-180 23 -285 178q-92 141 -92 338zM129 520q0 -190 107.5 -331.5t271.5 -141.5q97 0 197 55q119 66 200.5 231 t81.5 329q0 156 -78 249q-88 104 -264 105q-279 0 -397.5 -151.5t-118.5 -344.5zM457 1389q25 37 45 45q66 -27 108 -60q85 -65 142 -174l-2 -4q-88 96 -197 150q-47 20 -96 43z" />
<glyph unicode="&#xd3;" horiz-adv-x="1093" d="M72 508q0 164 65 297q70 143 195 205q63 31 92 39q98 29 262 22q237 -8 307 -182q41 -104 41 -227q0 -256 -147 -459q-158 -215 -385 -215q-27 0 -53 4q-180 23 -285 178q-92 141 -92 338zM129 520q0 -190 107.5 -331.5t271.5 -141.5q97 0 197 55q119 66 200.5 231 t81.5 329q0 156 -78 249q-88 104 -264 105q-279 0 -397.5 -151.5t-118.5 -344.5zM457 1200q86 166 250 234q20 -8 45 -45q-49 -23 -97 -43q-109 -53 -196 -150z" />
<glyph unicode="&#xd4;" horiz-adv-x="1093" d="M72 508q0 164 65 297q70 143 195 205q63 31 92 39q98 29 262 22q237 -8 307 -182q41 -104 41 -227q0 -256 -147 -459q-158 -215 -385 -215q-27 0 -53 4q-180 23 -285 178q-92 141 -92 338zM129 520q0 -190 107.5 -331.5t271.5 -141.5q97 0 197 55q119 66 200.5 231 t81.5 329q0 156 -78 249q-88 104 -264 105q-279 0 -397.5 -151.5t-118.5 -344.5zM362 1192q61 84 197 260h31q16 4 28 0q41 -64 164 -254q-16 0 -26 -8q-16 -8 -31 -4q-68 113 -78 123q-12 23 -61 92q-96 -127 -168 -209h-56z" />
<glyph unicode="&#xd5;" horiz-adv-x="1093" d="M72 508q0 164 65 297q70 143 195 205q63 31 92 39q98 29 262 22q237 -8 307 -182q41 -104 41 -227q0 -256 -147 -459q-158 -215 -385 -215q-27 0 -53 4q-180 23 -285 178q-92 141 -92 338zM129 520q0 -190 107.5 -331.5t271.5 -141.5q97 0 197 55q119 66 200.5 231 t81.5 329q0 156 -78 249q-88 104 -264 105q-279 0 -397.5 -151.5t-118.5 -344.5zM406 1237q39 170 110 170q10 0 21 -4q82 -51 202 -115q33 -10 60 41q4 6 30 80q21 0 33 -4q-6 -68 -35 -123q-33 -63 -71 -63q-23 0 -99 45q-100 59 -104 61q-10 4 -35 16q-23 2 -52.5 -39.5 t-33.5 -78.5q-2 4 -13 7t-13 7z" />
<glyph unicode="&#xd6;" horiz-adv-x="1093" d="M72 508q0 164 65 297q70 143 195 205q63 31 92 39q98 29 262 22q237 -8 307 -182q41 -104 41 -227q0 -256 -147 -459q-158 -215 -385 -215q-27 0 -53 4q-180 23 -285 178q-92 141 -92 338zM129 520q0 -190 107.5 -331.5t271.5 -141.5q97 0 197 55q119 66 200.5 231 t81.5 329q0 156 -78 249q-88 104 -264 105q-279 0 -397.5 -151.5t-118.5 -344.5zM469 1282q0 57 35 82q51 0 76 -29l-1 -3t-4 -5q-6 -43 -49 -86q-29 0 -51 8q-6 16 -6 33zM694 1282q0 57 35 82q51 0 76 -29l-1 -3q-1 -3 -3 -5q-6 -43 -49 -86q-29 0 -52 8q-6 16 -6 33z" />
<glyph unicode="&#xd7;" horiz-adv-x="698" d="M72 184l241 244q-86 82 -229 231l41 41l223 -237l244 244q8 -18 18 -37l-231 -240q20 -23 262 -278q-14 -8 -35 -25q-94 96 -260 270q-88 -94 -244 -262q-10 18 -30 49z" />
<glyph unicode="&#xd8;" horiz-adv-x="1155" d="M72 -41q16 6 71 72q39 43 76 88q-131 147 -131 389q0 164 66 297q70 143 194 205q63 31 92 39q98 27 262 22q131 -4 216 -65q25 35 61 90q2 2 5 6l3 4v4l2 2q33 8 78 8h18q11 -2 13 -2q-4 -8 -66 -84q-2 -2 -8 -10t-10 -12l-45 -56q84 -94 84 -297q0 -254 -150 -456 q-160 -215 -385 -215q-154 0 -264 96l-43 -53q-4 -6 -16 -17q-25 -25 -38.5 -33t-45.5 -16q-25 -6 -39 -6zM143 518q0 -205 121 -346q25 29 133 166l174 219l189 240q43 55 119 157q-84 61 -217 62q-279 0 -399 -151.5t-120 -346.5zM299 137q98 -90 225 -90q96 0 197 55 q119 66 201 231t82 329q0 153 -76 245q-211 -256 -629 -770z" />
<glyph unicode="&#xd9;" horiz-adv-x="995" d="M72 334q0 96 10 252q8 102 14 207q10 205 13 206q14 4 41 11q6 4 32 4q6 -37 -6 -201q-2 -16 -20 -225q-14 -139 -15 -228q0 -117 20.5 -207t160.5 -153q111 -51 188 -51q88 0 190 51q123 61 143.5 152.5t20.5 207.5q0 88 -14 228q-18 209 -21 225q-10 141 35 201 q27 0 33 -4q16 -1 41 -11q-23 -25 -27 -137q-2 -63 -2 -69q25 -465 25 -457q0 -147 -23 -205q-39 -100 -145 -166q-115 -72 -258 -71q-147 0 -264 71q-109 66 -150 166q-23 57 -22 203zM322 1389q25 37 45 45q66 -27 108 -60q84 -65 141 -174l-2 -4q-88 96 -196 150 q-47 20 -96 43z" />
<glyph unicode="&#xda;" horiz-adv-x="995" d="M72 334q0 96 10 252q8 102 14 207q10 205 13 206q14 4 41 11q6 4 32 4q6 -37 -6 -201q-2 -16 -20 -225q-14 -139 -15 -228q0 -117 20.5 -207t160.5 -153q111 -51 188 -51q88 0 190 51q123 61 143.5 152.5t20.5 207.5q0 88 -14 228q-18 209 -21 225q-10 141 35 201 q27 0 33 -4q16 -1 41 -11q-23 -25 -27 -137q-2 -63 -2 -69q25 -465 25 -457q0 -147 -23 -205q-39 -100 -145 -166q-115 -72 -258 -71q-147 0 -264 71q-109 66 -150 166q-23 57 -22 203zM362 1200q86 166 250 234q20 -8 45 -45q-49 -23 -96 -43q-109 -53 -196 -150z" />
<glyph unicode="&#xdb;" horiz-adv-x="995" d="M72 334q0 96 10 252q8 102 14 207q10 205 13 206q14 4 41 11q6 4 32 4q6 -37 -6 -201q-2 -16 -20 -225q-14 -139 -15 -228q0 -117 20.5 -207t160.5 -153q111 -51 188 -51q88 0 190 51q123 61 143.5 152.5t20.5 207.5q0 88 -14 228q-18 209 -21 225q-10 141 35 201 q27 0 33 -4q16 -1 41 -11q-23 -25 -27 -137q-2 -63 -2 -69q25 -465 25 -457q0 -147 -23 -205q-39 -100 -145 -166q-115 -72 -258 -71q-147 0 -264 71q-109 66 -150 166q-23 57 -22 203zM295 1192q61 84 197 260h30q16 4 29 0q41 -64 164 -254q-16 0 -27 -8q-16 -8 -31 -4 q-68 113 -77 123q-12 23 -62 92q-96 -127 -168 -209h-55z" />
<glyph unicode="&#xdc;" horiz-adv-x="995" d="M72 334q0 96 10 252q8 102 14 207q10 205 13 206q14 4 41 11q6 4 32 4q6 -37 -6 -201q-2 -16 -20 -225q-14 -139 -15 -228q0 -117 20.5 -207t160.5 -153q111 -51 188 -51q88 0 190 51q123 61 143.5 152.5t20.5 207.5q0 88 -14 228q-18 209 -21 225q-10 141 35 201 q27 0 33 -4q16 -1 41 -11q-23 -25 -27 -137q-2 -63 -2 -69q25 -465 25 -457q0 -147 -23 -205q-39 -100 -145 -166q-115 -72 -258 -71q-147 0 -264 71q-109 66 -150 166q-23 57 -22 203zM354 1282q0 57 35 82q51 0 76 -29l-1 -3t-3 -5q-6 -43 -49 -86q-29 0 -52 8 q-6 16 -6 33zM580 1282q0 57 34 82q51 0 76 -29l-1 -3q-1 -3 -3 -5q-6 -43 -49 -86q-29 0 -51 8q-6 16 -6 33z" />
<glyph unicode="&#xdd;" horiz-adv-x="929" d="M72 -242l75 -26q-23 -57 -22 -111q0 -106 74.5 -175t183.5 -69q78 0 154 37q104 51 184 318q82 281 86 647q2 223 -12 330q-18 -117 -50 -191q-37 -94 -155.5 -264t-192.5 -236q-96 -86 -176 -86q-49 0 -71 54q-10 4 -25 22q-27 94 -27 242q0 96 14.5 282.5t14.5 260.5 q0 2 2 53q4 41 2 74q-4 47 -14 90q0 4 76 4q25 -53 14 -201q-33 -459 -33 -582q0 -256 53 -256q94 0 267 224q18 25 106 153q33 49 76 133q74 145 74 316q0 61 -9 188q-4 18 -12 64q2 23 76 22l2 -4q2 -4 4 -16q16 -71 43 -221q18 -145 18 -328q0 -289 -45 -549 q-49 -289 -139 -446q-111 -193 -305 -193q-160 0 -260 125q-106 135 -51 315zM338 1200q86 166 250 234q20 -8 45 -45q-49 -23 -96 -43q-109 -53 -197 -150z" />
<glyph unicode="&#xde;" horiz-adv-x="931" d="M283 854q0 4 16 2t16 2q0 125 7 164q0 4 12 33q18 4 39 8q27 6 30 -4q0 -14 -8 -69.5t-8 -74.5v-55l180 8q14 2 56 2q133 -12 133 -14q74 -16 98 -84q20 -53 20 -117q0 -141 -81 -256q-86 -123 -207 -125l-164 -2l29 -272h-80q-14 78 -23 193q-10 129 -21.5 260 t-11.5 256v82q-14 2 -30 6q-2 4 -2 57zM389 801q0 -27 2 -80v-80q0 -109 25 -301h188q45 0 95.5 33t84 109.5t33.5 154.5q1 178 -151 172q-14 0 -35 2q-33 0 -43 -2z" />
<glyph unicode="&#xdf;" horiz-adv-x="792" d="M72 451q0 2 2 6v4q23 16 63 35q59 23 66 26q10 76 23.5 156t49.5 143q27 47 86.5 79t114.5 32q51 0 105 -27q63 -31 63 -76q0 -68 -90 -151q-68 -63 -149 -105q131 2 230 -83t99 -214q0 -100 -53 -176q-61 -84 -158 -84q-68 0 -123 57.5t-55 125.5q0 59 31 59q23 0 29 -7 t4 -24q-4 -25 -4 -28q0 -45 26 -86q31 -47 72 -47q150 0 149 213q0 104 -66.5 172.5t-170.5 68.5h-72q-4 0 -10 18.5t-6 24.5q0 8 37 27q203 137 202 235q0 25 -45 41q-35 14 -65 15q-33 0 -51 -9q-92 -41 -142 -395q-35 -248 -35 -459q0 -193 19 -378q6 -61 6 -62 q0 -6 -11.5 -14t-17.5 -8q-16 0 -26 61q-29 373 -29 399q0 254 20 430q-16 -4 -53 -14q-4 -2 -23.5 -12t-25.5 -10q-4 0 -4 4q-12 20 -12 37z" />
<glyph unicode="&#xe0;" horiz-adv-x="751" d="M72 113q0 164 133 327q154 190 364 181q12 0 13 -15q0 -66 18 -217q23 -188 62 -334l32 -10l-6 -37l-2 -6q-57 -16 -100 23q-27 78 -54 305q-61 -115 -118 -178q-45 -47 -115 -95q-82 -53 -135 -59q-92 -10 -92 115zM129 123q0 -68 35 -74q39 4 135 71.5t129 121.5 q90 143 86 319q-178 -18 -291 -178q-94 -131 -94 -260zM262 938q25 37 45 45q66 -27 109 -59q84 -65 141 -174l-2 -5q-88 96 -197 150q-47 20 -96 43z" />
<glyph unicode="&#xe1;" horiz-adv-x="751" d="M72 113q0 164 133 327q154 190 364 181q12 0 13 -15q0 -66 18 -217q23 -188 62 -334l32 -10l-6 -37l-2 -6q-57 -16 -100 23q-27 78 -54 305q-61 -115 -118 -178q-45 -47 -115 -95q-82 -53 -135 -59q-92 -10 -92 115zM129 123q0 -68 35 -74q39 4 135 71.5t129 121.5 q90 143 86 319q-178 -18 -291 -178q-94 -131 -94 -260zM262 750q86 166 250 233q20 -8 45 -45q-49 -23 -96 -43q-109 -53 -197 -150z" />
<glyph unicode="&#xe2;" horiz-adv-x="751" d="M72 113q0 164 133 327q154 190 364 181q12 0 13 -15q0 -66 18 -217q23 -188 62 -334l32 -10l-6 -37l-2 -6q-57 -16 -100 23q-27 78 -54 305q-61 -115 -118 -178q-45 -47 -115 -95q-82 -53 -135 -59q-92 -10 -92 115zM129 123q0 -68 35 -74q39 4 135 71.5t129 121.5 q90 143 86 319q-178 -18 -291 -178q-94 -131 -94 -260zM223 717q90 74 152 184q25 49 51 100q27 -51 51 -100q61 -111 152 -184l-2 -2q-127 45 -201 170q-74 -125 -201 -170z" />
<glyph unicode="&#xe3;" horiz-adv-x="751" d="M72 113q0 164 133 327q154 190 364 181q12 0 13 -15q0 -66 18 -217q23 -188 62 -334l32 -10l-6 -37l-2 -6q-57 -16 -100 23q-27 78 -54 305q-61 -115 -118 -178q-45 -47 -115 -95q-82 -53 -135 -59q-92 -10 -92 115zM129 123q0 -68 35 -74q39 4 135 71.5t129 121.5 q90 143 86 319q-178 -18 -291 -178q-94 -131 -94 -260zM180 786q39 170 111 170q10 0 20 -4q82 -51 203 -114q33 -10 59 41q4 6 31 79q21 0 33 -4q-6 -68 -35 -123q-33 -63 -72 -63q-23 0 -98 45q-100 59 -104 61q-10 4 -35 17q-23 2 -52.5 -40t-33.5 -79q-2 4 -13.5 7 t-13.5 7z" />
<glyph unicode="&#xe4;" horiz-adv-x="751" d="M72 113q0 164 133 327q154 190 364 181q12 0 13 -15q0 -66 18 -217q23 -188 62 -334l32 -10l-6 -37l-2 -6q-57 -16 -100 23q-27 78 -54 305q-61 -115 -118 -178q-45 -47 -115 -95q-82 -53 -135 -59q-92 -10 -92 115zM129 123q0 -68 35 -74q39 4 135 71.5t129 121.5 q90 143 86 319q-178 -18 -291 -178q-94 -131 -94 -260zM262 831q0 57 35 82q51 1 76 -28l-1 -3t-3 -5q-6 -43 -50 -86q-29 0 -51 8q-6 16 -6 32zM487 831q0 57 35 82q51 1 76 -28l-1 -3q-1 -3 -3 -5q-6 -43 -49 -86q-29 0 -51 8q-6 16 -7 32z" />
<glyph unicode="&#xe5;" horiz-adv-x="751" d="M72 113q0 164 133 327q154 190 364 181q12 0 13 -15q0 -66 18 -217q23 -188 62 -334l32 -10l-6 -37l-2 -6q-57 -16 -100 23q-27 78 -54 305q-61 -115 -118 -178q-45 -47 -115 -95q-82 -53 -135 -59q-92 -10 -92 115zM129 123q0 -68 35 -74q39 4 135 71.5t129 121.5 q90 143 86 319q-178 -18 -291 -178q-94 -131 -94 -260zM248 856q0 84 55 131q47 43 117 43q55 0 97 -29.5t50 -80.5q4 -27 4 -48q0 -72 -46 -119.5t-117 -47.5q-63 0 -111.5 40.5t-48.5 110.5zM305 860q0 -45 36 -74.5t79 -29.5q100 0 100 127q0 4 -2 10t-2 8q-25 82 -88 82 q-123 0 -123 -123z" />
<glyph unicode="&#xe6;" horiz-adv-x="1130" d="M72 113q0 164 133 327q154 190 364 181q12 0 13 -15q0 -41 14 -188q100 199 283 190q125 -6 125 -82q0 -55 -132 -178q-61 -57 -245 -131q8 -33 17 -65.5t28 -57.5q41 -53 119 -51q76 2 170 69.5t112 67.5q-14 -27 -59 -67q-117 -104 -219 -115q-55 -6 -107 8 q-115 53 -133 166l-2 2q-16 35 -21 156q-61 -115 -118 -178q-45 -47 -115 -95q-82 -53 -135 -59q-92 -10 -92 115zM129 123q0 -68 35 -74q39 4 135 71.5t129 121.5q90 143 86 319q-178 -18 -291 -178q-94 -131 -94 -260zM623 268q121 41 213 113q29 23 59 61q43 51 43 82 q0 29 -35 35q-18 4 -37 4q-104 0 -178 -102q-66 -90 -65 -193z" />
<glyph unicode="&#xe7;" horiz-adv-x="690" d="M74 233q0 150 92 246q113 117 274 117q121 0 121 -68q0 -25 -15.5 -55.5t-36 -31.5t-63.5 -5q41 33 41 64q0 37 -71 43q-72 6 -140 -45q-127 -96 -126 -260q0 -61 22 -119q33 -80 154 -80q92 0 157 47q2 2 66 61q35 31 84 39q-29 -39 -92 -110q-41 -37 -88 -56 q53 -31 59 -71q14 -96 -102 -172q-104 -68 -179 -68q-25 -12 -24 23q0 18 20 28q10 8 56 19.5t79 34.5q88 59 89 112q0 45 -70 72q-31 -6 -62 -6q-197 0 -237 166q-8 35 -8 75z" />
<glyph unicode="&#xe8;" horiz-adv-x="653" d="M72 219q0 143 90 260q98 127 239 121q125 -6 125 -80q0 -57 -131 -180q-61 -57 -245 -131q8 -33 17 -65.5t28 -57.5q41 -53 118 -51q76 2 170.5 69.5t112.5 67.5q-14 -27 -59 -68q-115 -104 -220 -114q-121 -12 -186 57q-59 63 -59 172zM145 260q121 41 213 113 q27 20 60 61q43 53 43 84q0 27 -35 33q-18 4 -37 4q-104 0 -178 -102q-66 -90 -66 -193zM205 938q25 37 45 45q66 -27 108 -59q85 -65 142 -174l-2 -5q-88 96 -197 150q-47 20 -96 43z" />
<glyph unicode="&#xe9;" horiz-adv-x="653" d="M72 219q0 143 90 260q98 127 239 121q125 -6 125 -80q0 -57 -131 -180q-61 -57 -245 -131q8 -33 17 -65.5t28 -57.5q41 -53 118 -51q76 2 170.5 69.5t112.5 67.5q-14 -27 -59 -68q-115 -104 -220 -114q-121 -12 -186 57q-59 63 -59 172zM145 260q121 41 213 113 q27 20 60 61q43 53 43 84q0 27 -35 33q-18 4 -37 4q-104 0 -178 -102q-66 -90 -66 -193zM205 750q86 166 250 233q20 -8 45 -45q-49 -23 -97 -43q-109 -53 -196 -150z" />
<glyph unicode="&#xea;" horiz-adv-x="653" d="M72 219q0 143 90 260q98 127 239 121q125 -6 125 -80q0 -57 -131 -180q-61 -57 -245 -131q8 -33 17 -65.5t28 -57.5q41 -53 118 -51q76 2 170.5 69.5t112.5 67.5q-14 -27 -59 -68q-115 -104 -220 -114q-121 -12 -186 57q-59 63 -59 172zM145 260q121 41 213 113 q27 20 60 61q43 53 43 84q0 27 -35 33q-18 4 -37 4q-104 0 -178 -102q-66 -90 -66 -193zM158 717q90 74 151 184q25 49 51 100q25 -51 50 -100q61 -111 153 -184l-4 -2q-125 45 -199 170q-80 -127 -200 -170z" />
<glyph unicode="&#xeb;" horiz-adv-x="653" d="M72 219q0 143 90 260q98 127 239 121q125 -6 125 -80q0 -57 -131 -180q-61 -57 -245 -131q8 -33 17 -65.5t28 -57.5q41 -53 118 -51q76 2 170.5 69.5t112.5 67.5q-14 -27 -59 -68q-115 -104 -220 -114q-121 -12 -186 57q-59 63 -59 172zM145 260q121 41 213 113 q27 20 60 61q43 53 43 84q0 27 -35 33q-18 4 -37 4q-104 0 -178 -102q-66 -90 -66 -193zM205 831q0 57 35 82q50 1 75 -28l-1 -3t-3 -5q-6 -43 -49 -86q-29 0 -51 8q-6 16 -6 32zM430 831q0 57 35 82q51 1 76 -28l-1 -3q-1 -3 -3 -5q-6 -43 -50 -86q-29 0 -51 8q-6 16 -6 32 z" />
<glyph unicode="&#xec;" horiz-adv-x="235" d="M-29 938q25 37 45 45q66 -27 109 -59q84 -65 141 -174l-2 -5q-88 96 -196 150q-47 20 -97 43zM45 293q0 203 16 266q47 20 70 -2q-18 -88 -10 -238v-131q0 -111 12 -127q17 -4 35 -18q6 -39 -8 -57q-74 0 -99 30q-16 76 -16 277z" />
<glyph unicode="&#xed;" horiz-adv-x="235" d="M-29 750q86 166 250 233q20 -8 45 -45q-49 -23 -96 -43q-109 -53 -197 -150zM45 293q0 203 16 266q47 20 70 -2q-18 -88 -10 -238v-131q0 -111 12 -127q17 -4 35 -18q6 -39 -8 -57q-74 0 -99 30q-16 76 -16 277z" />
<glyph unicode="&#xee;" horiz-adv-x="235" d="M-84 717q90 74 152 184q25 49 51 100q25 -51 49 -100q61 -111 151 -184l-2 -2q-124 45 -198 170q-80 -127 -201 -170zM45 293q0 203 16 266q47 20 70 -2q-18 -88 -10 -238v-131q0 -111 12 -127q17 -4 35 -18q6 -39 -8 -57q-74 0 -99 30q-16 76 -16 277z" />
<glyph unicode="&#xef;" horiz-adv-x="235" d="M-49 831q0 57 35 82q50 1 75 -28l-1 -3t-3 -5q-6 -43 -49 -86q-29 0 -51 8q-6 16 -6 32zM45 293q0 203 16 266q47 20 70 -2q-18 -88 -10 -238v-131q0 -111 12 -127q17 -4 35 -18q6 -39 -8 -57q-74 0 -99 30q-16 76 -16 277zM176 831q0 57 35 82q51 1 76 -28l-1 -3 q-1 -3 -3 -5q-6 -43 -50 -86q-29 0 -51 8q-6 16 -6 32z" />
<glyph unicode="&#xf0;" horiz-adv-x="768" d="M25 1159q322 -29 518 -270q66 4 93.5 17.5t65.5 62.5q20 -8 29 -37q-39 -47 -66.5 -62.5t-91.5 -21.5q133 -190 144 -352q4 -66 -2 -191q-6 -152 -97 -244q-92 -98 -241 -98q-137 0 -230.5 87t-85.5 224q8 139 105 220q86 74 207 73q100 0 178 -53q86 -55 117 -156 q0 287 -150 486q-90 -2 -178 -4q-127 -12 -127 -70q0 -25 23 -57l-23 -11q-33 47 -33 82q0 117 305 103q-164 188 -432 237zM121 256q-4 -106 76 -172q74 -61 180 -61q86 0 160 43q41 25 77.5 73.5t40.5 93.5q2 31 -14 89q-27 90 -98.5 145t-163.5 55q-111 0 -182.5 -76.5 t-75.5 -189.5z" />
<glyph unicode="&#xf1;" horiz-adv-x="673" d="M72 6q0 90 10 268.5t10 266.5q25 6 74 18q6 -6 6 -41q0 -49 -14 -170q-6 -68 -15 -137q164 279 297 352q31 16 64 17q31 0 37 -21q6 -23 -6 -141q-8 -78 -3 -182q8 -139 46 -164q10 0 21 8t15 8q8 -10 2 -63q-33 -25 -90 -25q-59 70 -59 338q0 139 -4 156q-51 0 -135 -97 q-63 -72 -107 -145q-57 -96 -71 -150q-6 -18 -17 -102q-53 -6 -61 6zM102 786q39 170 111 170q10 0 20 -4q82 -51 203 -114q33 -10 60 41q4 6 30 79q21 0 33 -4q-6 -68 -35 -123q-33 -63 -71 -63q-23 0 -99 45q-100 59 -104 61q-10 4 -35 17q-23 2 -52.5 -40t-33.5 -79 q-2 4 -13.5 7t-13.5 7z" />
<glyph unicode="&#xf2;" horiz-adv-x="659" d="M72 207q0 100 50 196.5t134 135.5q78 37 193 34q117 -2 143 -84q8 -30 8 -73q0 -156 -111 -291q-119 -145 -260 -129q-158 18 -157 211zM135 233q0 -78 38 -130t99 -52q45 0 97 29q66 39 119 135t53 182q0 131 -131 129q-127 -2 -193 -77q-82 -94 -82 -216zM217 938 q25 37 45 45q66 -27 109 -59q84 -65 141 -174l-2 -5q-88 96 -197 150q-47 20 -96 43z" />
<glyph unicode="&#xf3;" horiz-adv-x="659" d="M72 207q0 100 50 196.5t134 135.5q78 37 193 34q117 -2 143 -84q8 -30 8 -73q0 -156 -111 -291q-119 -145 -260 -129q-158 18 -157 211zM135 233q0 -78 38 -130t99 -52q45 0 97 29q66 39 119 135t53 182q0 131 -131 129q-127 -2 -193 -77q-82 -94 -82 -216zM219 750 q86 166 250 233q20 -8 45 -45q-49 -23 -96 -43q-109 -53 -197 -150z" />
<glyph unicode="&#xf4;" horiz-adv-x="659" d="M72 207q0 100 50 196.5t134 135.5q78 37 193 34q117 -2 143 -84q8 -30 8 -73q0 -156 -111 -291q-119 -145 -260 -129q-158 18 -157 211zM135 233q0 -78 38 -130t99 -52q45 0 97 29q66 39 119 135t53 182q0 131 -131 129q-127 -2 -193 -77q-82 -94 -82 -216zM178 717 q90 74 152 184q25 49 49 100q27 -51 51 -100q61 -111 152 -184l-2 -2q-121 43 -201 170q-74 -125 -199 -170z" />
<glyph unicode="&#xf5;" horiz-adv-x="669" d="M72 207q0 100 50 196.5t134 135.5q78 37 193 34q117 -2 143 -84q8 -30 8 -73q0 -156 -111 -291q-119 -145 -260 -129q-158 18 -157 211zM135 233q0 -78 38 -130t99 -52q45 0 97 29q66 39 119 135t53 182q0 131 -131 129q-127 -2 -193 -77q-82 -94 -82 -216zM156 786 q39 170 110 170q10 0 21 -4q82 -51 202 -114q33 -10 60 41q4 6 31 79q20 0 32 -4q-6 -68 -34 -123q-33 -63 -72 -63q-23 0 -98 45q-100 59 -105 61q-10 4 -35 17q-23 2 -52.5 -40t-33.5 -79q-2 4 -13 7t-13 7z" />
<glyph unicode="&#xf6;" horiz-adv-x="659" d="M72 207q0 100 50 196.5t134 135.5q78 37 193 34q117 -2 143 -84q8 -30 8 -73q0 -156 -111 -291q-119 -145 -260 -129q-158 18 -157 211zM135 233q0 -78 38 -130t99 -52q45 0 97 29q66 39 119 135t53 182q0 131 -131 129q-127 -2 -193 -77q-82 -94 -82 -216zM219 831 q0 57 35 82q51 1 76 -28l-1 -3t-3 -5q-6 -43 -50 -86q-29 0 -51 8q-6 16 -6 32zM444 831q0 57 35 82q51 1 76 -28l-1 -3q-1 -3 -3 -5q-6 -43 -49 -86q-29 0 -51 8q-6 16 -7 32z" />
<glyph unicode="&#xf7;" d="M72 397q4 20 12 58q204 2 614 2l-12 -39q-410 -8 -614 -21zM336 160q0 70 37 98q35 0 78 -35q-8 -37 -13 -51q-10 -23 -30 -45q-49 -12 -72 33zM340 616q0 72 37 101q35 0 78 -35q-8 -39 -13 -51q-8 -23 -30 -45q-51 -12 -72 30z" />
<glyph unicode="&#xf8;" horiz-adv-x="808" d="M72 -29q68 25 80 37q18 25 36 49q-45 57 -45 152q0 100 50.5 195.5t134.5 134.5q76 37 192 34q53 0 90 -20q29 37 41 55l4 4q16 10 58 11q16 0 39 -2q-12 -16 -37 -43q-8 -8 -21 -25q-2 -6 -8 -8l-31 -37q16 -35 17 -92q0 -156 -111 -291q-119 -145 -260 -129 q-43 4 -78 27l-26 -31l-8.5 -8.5t-10.5 -8.5q-16 -16 -47 -22q-27 -6 -59 18zM209 236q0 -74 31 -123q31 39 55 67l106 123q57 66 168 199q-31 25 -88 24q-127 -2 -192 -77q-80 -94 -80 -213zM270 76q33 -25 74 -25q45 0 96 29q68 39 120 135t52 182q0 31 -8 56l-115 -131 q-76 -86 -219 -246z" />
<glyph unicode="&#xf9;" horiz-adv-x="690" d="M72 283q6 70 12 137q10 78 35 131q49 10 67 -6q-12 -45 -28 -139q-20 -180 -21 -234q0 -57 8 -104q4 -20 16.5 -24.5t24.5 -4.5q76 0 183 127q90 109 112 176q18 53 19 117q0 -37 -4 116q61 10 77 -8q-12 -123 -12 -223q0 -247 72 -315l-2 2l-49 -31q-66 25 -95 260 q-59 -80 -118 -162q-94 -113 -195 -112q-33 0 -65 12q-59 20 -37 285zM197 938q25 37 45 45q66 -27 108 -59q85 -65 142 -174l-3 -5q-88 96 -196 150q-47 20 -96 43z" />
<glyph unicode="&#xfa;" horiz-adv-x="690" d="M72 283q6 70 12 137q10 78 35 131q49 10 67 -6q-12 -45 -28 -139q-20 -180 -21 -234q0 -57 8 -104q4 -20 16.5 -24.5t24.5 -4.5q76 0 183 127q90 109 112 176q18 53 19 117q0 -37 -4 116q61 10 77 -8q-12 -123 -12 -223q0 -247 72 -315l-2 2l-49 -31q-66 25 -95 260 q-59 -80 -118 -162q-94 -113 -195 -112q-33 0 -65 12q-59 20 -37 285zM197 750q86 166 249 233q21 -8 46 -45q-49 -23 -97 -43q-109 -53 -196 -150z" />
<glyph unicode="&#xfb;" horiz-adv-x="690" d="M72 283q6 70 12 137q10 78 35 131q49 10 67 -6q-12 -45 -28 -139q-20 -180 -21 -234q0 -57 8 -104q4 -20 16.5 -24.5t24.5 -4.5q76 0 183 127q90 109 112 176q18 53 19 117q0 -37 -4 116q61 10 77 -8q-12 -123 -12 -223q0 -247 72 -315l-2 2l-49 -31q-66 25 -95 260 q-59 -80 -118 -162q-94 -113 -195 -112q-33 0 -65 12q-59 20 -37 285zM158 717q92 74 153 184q25 49 49 100q27 -51 52 -100q61 -111 151 -184l-2 -2q-127 45 -201 170q-74 -125 -198 -170z" />
<glyph unicode="&#xfc;" horiz-adv-x="690" d="M72 283q6 70 12 137q10 78 35 131q49 10 67 -6q-12 -45 -28 -139q-20 -180 -21 -234q0 -57 8 -104q4 -20 16.5 -24.5t24.5 -4.5q76 0 183 127q90 109 112 176q18 53 19 117q0 -37 -4 116q61 10 77 -8q-12 -123 -12 -223q0 -247 72 -315l-2 2l-49 -31q-66 25 -95 260 q-59 -80 -118 -162q-94 -113 -195 -112q-33 0 -65 12q-59 20 -37 285zM197 831q0 57 34 82q51 1 76 -28l-1 -3t-3 -5q-6 -43 -49 -86q-29 0 -51 8q-6 16 -6 32zM422 831q0 57 35 82q50 1 75 -28l-1 -3q-1 -3 -3 -5q-6 -43 -49 -86q-29 0 -51 8q-6 16 -6 32z" />
<glyph unicode="&#xfd;" horiz-adv-x="667" d="M-133 -356q0 31 22 45q31 18 68 18q29 0 43 -14q2 -6 -6 -23q-16 2 -29 2q-35 0 -35 -22q0 -18 25 -66q4 -4 35 -47q61 -86 173.5 -138t221.5 -52q104 0 168 47q70 55 74 160q4 137 -27 270q-33 115 -64.5 230.5t-46.5 205.5q-229 -266 -350 -266q-16 0 -28 4 q-33 10 -39 133q-4 80 2 149.5t12 137.5q10 80 35 133q51 10 67 -6q0 -16 -13 -70.5t-15 -68.5q-20 -227 -21 -244q0 -51 8 -94q4 -25 17 -25q51 0 178 125q123 119 141 174q16 43 19 96q4 37 0 82l-4 55q63 12 77 -8q-14 -180 -10 -256q6 -145 57.5 -286.5t63.5 -192.5 q31 -113 31 -238q0 -133 -113 -223q-102 -80 -246 -80q-221 0 -372 152l-37 37q-25 25 -51 69q-31 57 -31 95zM223 750q86 166 250 233q20 -8 45 -45q-49 -23 -96 -43q-109 -53 -197 -150z" />
<glyph unicode="&#xfe;" horiz-adv-x="710" d="M72 -223q0 205 16 635q14 401 43 551l55 6q2 -2 23 -8q-18 -92 -39 -314q-18 -209 -14 -264q141 162 348 176q150 10 149 -110q0 -137 -157 -295q-170 -168 -351 -158q-8 -455 23 -539l16 -45q-14 -16 -47 -16q-31 0 -47 16q-18 96 -18 365zM145 41l56 10 q135 25 263 143.5t128 229.5q0 19 -4 35q-12 47 -74 47q-84 0 -213 -72q-121 -70 -147 -123q-2 -45 -4.5 -135t-4.5 -135z" />
<glyph unicode="&#xff;" horiz-adv-x="667" d="M-135 -356q0 31 22 45q31 18 68 18q29 0 43 -14q0 -6 -6 -23q-16 2 -29 2q-35 0 -35 -22q0 -18 25 -66q4 -4 35 -47q61 -86 173.5 -138t221.5 -52q104 0 168 47q70 55 74 160q4 137 -27 270q-33 115 -64.5 230.5t-46.5 205.5q-229 -266 -350 -266q-16 0 -28 4 q-33 10 -39 133q-4 80 2 149.5t12 137.5q10 80 35 133q51 10 67 -6q0 -16 -13 -70.5t-15 -68.5q-20 -227 -21 -244q0 -51 8 -94q4 -25 17 -25q51 0 178 125q123 119 141 174q16 43 19 96q4 37 0 82l-4 55q63 12 77 -8q-14 -180 -10 -256q6 -145 57.5 -286.5t63.5 -192.5 q31 -113 31 -238q0 -133 -113 -223q-102 -80 -246 -80q-221 0 -372 152l-37 37q-25 25 -51 69q-31 57 -31 95zM221 831q0 57 35 82q51 1 76 -28l-1 -3t-3 -5q-6 -43 -49 -86q-29 0 -52 8q-6 16 -6 32zM446 831q0 57 35 82q51 1 76 -28l-1 -3q-1 -3 -3 -5q-6 -43 -49 -86 q-29 0 -51 8q-6 16 -7 32z" />
<glyph unicode="&#x152;" horiz-adv-x="1413" d="M72 508q0 164 55 297q61 143 166 205q70 41 69 41q76 27 213 20q113 -6 175 -96q61 106 243 108q211 2 254 -178q-6 -70 -53 -69q-8 0 -16 6l10 63q-23 141 -213 125q-193 -16 -191 -135q-18 -172 316 -244l-2 -33q-41 -4 -168 -26q-260 -55 -256 -320q2 -100 90 -169.5 t203 -69.5q121 0 237 67q23 12 74 72q43 49 59 49q14 0 19 -35q-53 -96 -172 -153q-106 -53 -217 -53q-172 0 -275 106q-43 -49 -123 -74q-49 -10 -98 -22q-41 -4 -80 2q-154 23 -239 178q-80 141 -80 338zM119 520q0 -201 100 -342q102 -147 252 -129q111 -6 191 76 q-45 68 -48 164q-4 174 134 276q111 82 223 78q-49 16 -99 35q-57 20 -88 53q-61 66 -59 160q0 4 2 12v10q-39 49 -59 66q-43 33 -93 35q-4 0 -16 2h-16q-152 0 -236 -55q-41 -27 -88 -99q-100 -147 -100 -342z" />
<glyph unicode="&#x153;" horiz-adv-x="1095" d="M72 207q0 100 50 196.5t134 135.5q78 37 193 34q127 -2 145 -94l2 -10q98 137 248 131q125 -4 125 -80q0 -57 -131 -180q-61 -57 -246 -131q8 -33 17 -65.5t28 -57.5q41 -53 119 -51q76 2 170 69.5t112 67.5q-14 -27 -59 -68q-117 -104 -219 -114q-209 -20 -242 176 q-119 -188 -289 -170q-158 16 -157 211zM135 233q0 -78 38 -130t99 -52q45 0 97 29q100 57 153 213q2 18 15 55q4 25 4 47q0 133 -131 131q-127 -2 -193 -77q-82 -94 -82 -216zM588 260q121 41 213 113q104 82 104 143q0 29 -37 35q-18 4 -37 4q-102 0 -176 -102 q-68 -90 -67 -193z" />
<glyph unicode="&#x178;" horiz-adv-x="929" d="M72 -242l75 -26q-23 -57 -22 -111q0 -106 74.5 -175t183.5 -69q78 0 154 37q104 51 184 318q82 281 86 647q2 223 -12 330q-18 -117 -50 -191q-37 -94 -155.5 -264t-192.5 -236q-96 -86 -176 -86q-49 0 -71 54q-10 4 -25 22q-27 94 -27 242q0 96 14.5 282.5t14.5 260.5 q0 2 2 53q4 41 2 74q-4 47 -14 90q0 4 76 4q25 -53 14 -201q-33 -459 -33 -582q0 -256 53 -256q94 0 267 224q18 25 106 153q33 49 76 133q74 145 74 316q0 61 -9 188q-4 18 -12 64q2 23 76 22l2 -4q2 -4 4 -16q16 -71 43 -221q18 -145 18 -328q0 -289 -45 -549 q-49 -289 -139 -446q-111 -193 -305 -193q-160 0 -260 125q-106 135 -51 315zM309 1282q0 57 35 82q51 0 76 -29l-1 -3t-3 -5q-6 -43 -49 -86q-29 0 -52 8q-6 16 -6 33zM535 1282q0 57 34 82q51 0 76 -29l-1 -3q-1 -3 -3 -5q-6 -43 -49 -86q-29 0 -51 8q-6 16 -6 33z" />
<glyph unicode="&#x2c6;" horiz-adv-x="571" d="M72 864q90 123 204 271q23 4 66 0q39 -66 172 -267q-18 4 -34.5 -4t-24.5 -8q-6 0 -15 2q-37 61 -78 125q-12 23 -57 86q-33 -45 -166 -205h-67z" />
<glyph unicode="&#x2dc;" horiz-adv-x="587" d="M72 918q39 170 112 169q8 0 19 -2q84 -51 205 -114q6 -2 10 -2q27 0 57 57q8 25 21 66q18 -1 34 -5q-4 -66 -35.5 -127t-68.5 -61q-23 0 -98 47q-100 57 -105 60q-12 6 -37 16q-20 2 -50 -40t-36 -79q-10 4 -28 15z" />
<glyph unicode="&#x2000;" horiz-adv-x="740" />
<glyph unicode="&#x2001;" horiz-adv-x="1481" />
<glyph unicode="&#x2002;" horiz-adv-x="740" />
<glyph unicode="&#x2003;" horiz-adv-x="1481" />
<glyph unicode="&#x2004;" horiz-adv-x="493" />
<glyph unicode="&#x2005;" horiz-adv-x="370" />
<glyph unicode="&#x2006;" horiz-adv-x="246" />
<glyph unicode="&#x2007;" horiz-adv-x="246" />
<glyph unicode="&#x2008;" horiz-adv-x="185" />
<glyph unicode="&#x2009;" horiz-adv-x="296" />
<glyph unicode="&#x200a;" horiz-adv-x="82" />
<glyph unicode="&#x2010;" d="M72 397q2 8 12 58l614 2q-4 -8 -12 -39q-113 -2 -313 -6q-150 -4 -301 -15z" />
<glyph unicode="&#x2011;" d="M72 397q2 8 12 58l614 2q-4 -8 -12 -39q-113 -2 -313 -6q-150 -4 -301 -15z" />
<glyph unicode="&#x2012;" d="M72 397q2 8 12 58l614 2q-4 -8 -12 -39q-113 -2 -313 -6q-150 -4 -301 -15z" />
<glyph unicode="&#x2013;" horiz-adv-x="940" d="M72 397q2 8 12 58l799 2q-4 -8 -13 -39q-174 -2 -436 -6q-131 -4 -362 -15z" />
<glyph unicode="&#x2014;" horiz-adv-x="1144" d="M72 397q2 8 12 58l1003 2q-4 -8 -12 -39q-236 -2 -559 -6q-172 -4 -444 -15z" />
<glyph unicode="&#x2018;" horiz-adv-x="284" d="M72 979q0 74 50 139.5t103 57.5h2q-88 -68 -88 -154q0 -57 37 -107l-39 -26q-14 6 -47 14q-18 33 -18 76z" />
<glyph unicode="&#x2019;" horiz-adv-x="284" d="M72 891q88 68 88 153q0 39 -19 78q-2 8 -18 29q12 8 39 27q16 -5 47 -15q18 -33 18 -76q0 -74 -50 -139t-103 -57h-2z" />
<glyph unicode="&#x201a;" horiz-adv-x="284" d="M72 -176q88 68 88 153q0 57 -37 107q12 8 39 27q16 -5 47 -15q18 -33 18 -76q0 -74 -50 -139t-103 -57h-2z" />
<glyph unicode="&#x201c;" horiz-adv-x="489" d="M72 979q0 74 50 139.5t103 57.5h2q-88 -68 -88 -154q0 -57 37 -107l-39 -26q-14 6 -47 14q-18 33 -18 76zM276 979q0 74 50.5 139.5t103.5 57.5h2q-88 -68 -88 -154q0 -57 37 -107l-39 -26q-14 6 -47 14q-18 33 -19 76z" />
<glyph unicode="&#x201d;" horiz-adv-x="489" d="M72 891q88 68 88 153q0 39 -19 78q-2 8 -18 29q12 8 39 27q16 -5 47 -15q18 -33 18 -76q0 -74 -50 -139t-103 -57h-2zM276 891q88 68 89 153q0 39 -19 78q-2 8 -18 29q12 8 39 27q16 -5 47 -15q18 -33 18 -76q0 -74 -50 -139t-103 -57h-3z" />
<glyph unicode="&#x201e;" horiz-adv-x="530" d="M72 -176q88 68 88 153q0 57 -37 107q12 8 39 27q16 -5 47 -15q18 -33 18 -76q0 -74 -50 -139t-103 -57h-2zM317 -176q88 68 89 153q0 57 -37 107q12 8 39 27q16 -5 47 -15q18 -33 18 -76q0 -74 -50 -139t-104 -57h-2z" />
<glyph unicode="&#x2022;" horiz-adv-x="389" d="M72 502q6 84 84 133q106 0 176 -55q-2 -6 -10 -21q-16 -88 -113 -164q-76 0 -123 17q-16 45 -14 90z" />
<glyph unicode="&#x2026;" horiz-adv-x="761" d="M72 80q53 26 100 6q12 -55 -4 -106q-47 -25 -86 -3q-31 63 -10 103zM338 80q53 26 100 6q12 -55 -4 -106q-47 -25 -86 -3q-31 63 -10 103zM604 80q54 26 101 6q12 -55 -5 -106q-47 -25 -86 -3q-31 63 -10 103z" />
<glyph unicode="&#x202f;" horiz-adv-x="296" />
<glyph unicode="&#x2039;" horiz-adv-x="489" d="M72 332l49 26q8 4 20 11q70 37 174 166q16 23 54 59q33 -8 37 -27q-100 -139 -211 -219q161 -113 237 -252q-23 -33 -67 -43q-8 8 -33 47q-61 96 -180 174q-47 31 -80 58z" />
<glyph unicode="&#x203a;" horiz-adv-x="489" d="M72 96q23 -33 67 -43q4 4 33 47q66 98 180 174q27 16 80 58l-49 26q-6 2 -21 11q-70 35 -174 166q-14 23 -53 59q-16 -4 -22 -8q-12 -6 -15 -19q109 -145 211 -219q-157 -111 -237 -252z" />
<glyph unicode="&#x205f;" horiz-adv-x="370" />
<glyph unicode="&#x2122;" horiz-adv-x="1189" d="M72 948q0 47 26 80q39 49 109 53q88 6 217 -16q66 -12 143 -6q57 4 150 57q6 -2 15 -4t5 -14q-8 -6 -26 -21q-84 -61 -164 -59q-43 0 -127 10q2 -59 -94 -186q-23 -31 -66 -94q-27 -49 -20 -80q14 -70 68 -109t134 -35q102 4 189 66q0 23 4 112q4 70 4 115q16 4 49 12 q8 -10 0 -96q-2 -29 -8 -78q82 133 154 174q14 8 34 11q25 0 29 -15l-4 -80q-2 -39 -2 -63q72 113 137 147q51 29 62 -4q4 -14 -3 -80q-14 -158 21 -184q2 0 6 2l4 4l10 2q4 -6 5 -43q-23 -16 -58 -16q-35 41 -35 192q0 72 -2 80q-53 -8 -125 -131q-14 -23 -18 -65 q0 -51 37 -76h-53q-33 41 -33 192v80q-53 -8 -125 -131q-20 -33 -45 -106q0 -8 -4 -33q-37 -6 -43 6v31q-92 -59 -211 -60q-98 0 -160 46q-70 53 -70 153q0 57 96.5 169t94.5 175q-106 16 -186 4q-90 -12 -87 -84z" />
<glyph unicode="&#x25fc;" horiz-adv-x="655" d="M0 0v655h655v-655h-655z" />
</font>
</defs>
</svg>
